<svg xmlns="http://www.w3.org/2000/svg" width="39" height="29" viewBox="0 0 39 29"><g><g><path fill="#ec7319" d="M5.885 29C2.281 28.979.147 26.867.127 23.273c-.031-5.569-.031-11.138 0-16.708C.147 2.991 2.288.882 5.916.872 15.003.849 24.09.846 33.176.874c3.471.011 5.621 2.151 5.645 5.613.039 5.643.039 11.285 0 16.928-.024 3.437-2.191 5.556-5.676 5.583-4.543.035-9.086.009-13.63.009-4.543 0-9.087.02-13.63-.007zm-2.283-5.556c.001 1.481.817 2.087 2.227 2.086 9.095-.005 18.189-.009 27.283.004 1.741.003 2.271-.939 2.254-2.52-.036-3.594-.01-7.188-.01-10.782V6.734c-4.161 4.169-7.866 7.902-11.594 11.61-2.897 2.881-5.681 2.881-8.567.007-3.727-3.712-7.435-7.444-11.594-11.612 0 6.014-.002 11.36.001 16.705zM6.196 4.542c4.059 4.053 7.848 7.829 11.627 11.615.975.977 2.021 1.245 3.068.207 3.885-3.851 7.74-7.736 11.819-11.822z"/></g></g></svg>