<svg xmlns="http://www.w3.org/2000/svg" width="29" height="37" viewBox="0 0 29 37"><g><g><path fill="#ec7319" d="M15.025 35.243C6.745 28.413 1.775 19.717.12 9.124c-.57-3.656 1.12-5.939 5.635-7.72 3.17-1.253 6.37-.41 8.252 2.167 2.427 3.326 2.526 6.447-.058 9.187-1.127 1.196-1.259 2.121-.49 3.421.595 1.008 1.04 2.111 1.673 3.092 1.26 1.951 2.317 3.497 5.462 2.824 4.563-.977 8.642 4.313 7.42 8.901-1.512 5.67-8.527 7.928-12.988 4.247zm-7.174-30.5C5.097 5.292 3.635 6.876 4 9.08c1.615 9.756 6.385 17.638 14.13 23.768 2.043 1.618 3.426.073 4.85-.916 1.396-.97 1.91-2.33 1.014-4.018-1.15-2.17-2.904-2.81-5.074-1.429-1.516.965-2.335.648-3.465-.6-3.1-3.426-5.326-7.315-6.905-11.63-.484-1.322-.352-2.117.97-2.84.96-.525 2.807-2.078 2.326-3.799-.652-2.329-2.15-3.24-3.994-2.874z"/></g></g></svg>