<svg xmlns="http://www.w3.org/2000/svg" width="162" height="40" viewBox="0 0 162 40"><g><g><path fill="#304247" d="M.176 39.418V1.111h10.565v4.271H4.447V17.97h4.09v4.272h-4.09v17.176z"/></g><g><path fill="#304247" d="M9.857 39.418l4.637-38.306h5.663l4.377 38.306h-4.301l-.664-5.907h-4.877c-.264 2.09-.493 4.059-.687 5.907zm9.269-9.86c-.778-6.483-1.43-12.285-1.954-17.404-.642 6.362-1.316 12.163-2.021 17.404z"/></g><g><path fill="#304247" d="M25.968 33.51v-8.133h4.272v8.134c0 .636.154 1.136.463 1.5.308.363.756.544 1.343.544 1.265 0 1.897-.683 1.897-2.048V28.04c0-.82-.096-1.507-.286-2.06-.19-.554-.545-1.158-1.064-1.81-.274-.35-1.06-1.284-2.356-2.802-1.297-1.518-2.321-2.791-3.072-3.818-.798-1.074-1.197-2.684-1.197-4.831V7.029c0-4.218 2.07-6.327 6.214-6.327 2.045 0 3.516.51 4.414 1.534.897 1.023 1.346 2.624 1.346 4.805v6.975h-3.863V7.034c0-1.373-.594-2.06-1.783-2.06-.618 0-1.073.159-1.367.478-.293.319-.44.828-.44 1.526v5.67c0 1.124.239 1.997.716 2.618.462.608 1.31 1.65 2.547 3.13 1.237 1.482 2.154 2.647 2.752 3.496.597.88 1.009 1.776 1.235 2.686.226.91.339 2.049.339 3.414V33.5c0 4.219-1.965 6.327-5.896 6.327-4.143 0-6.214-2.105-6.214-6.316z"/></g><g><path fill="#304247" d="M39.67 5.382v-4.27h12.293v4.27h-4v34.036h-4.271V5.382z"/></g><g><path fill="#ff9738" d="M54.51 39.418v-6.987c0-2.337.22-4.207.66-5.611.44-1.403 1.398-3.182 2.874-5.337 1.834-2.61 3.006-4.508 3.517-5.692.51-1.185.765-2.665.765-4.441V7.251c0-1.518-.61-2.277-1.83-2.277-1.173 0-1.76.763-1.76 2.289v6.753h-4.225V7.359c0-2.332.484-4.024 1.45-5.077.969-1.053 2.48-1.58 4.536-1.58 2.04 0 3.568.542 4.58 1.622 1.015 1.082 1.52 2.757 1.52 5.027v4.469c0 1.847-.316 3.609-.95 5.288-.633 1.679-1.63 3.479-2.985 5.401-1.687 2.352-2.756 4.137-3.205 5.351-.45 1.215-.675 2.74-.675 4.577v2.71h7.816v4.271z"/></g><g><path fill="#304247" d="M69.886 39.418V1.111h5.703c.861 8.18 1.935 17.617 3.22 28.311 1.328-11.527 2.36-20.964 3.096-28.311h5.862v38.307h-3.863V28.239c0-5.558.061-10.549.182-14.972a3479.349 3479.349 0 0 0-3.489 26.151h-3.195L73.544 9.001c.136 8.685.204 14.49.204 17.415v13.002z"/></g><g><path fill="#304247" d="M89.687 39.418l4.638-38.306h5.663l4.377 38.306h-4.3L99.4 33.51h-4.877c-.264 2.09-.493 4.059-.687 5.907zm9.27-9.86a1015.675 1015.675 0 0 1-1.953-17.404c-.643 6.362-1.317 12.163-2.022 17.404z"/></g><g><path fill="#304247" d="M106.277 39.418V1.112h5.89c2.261 0 3.94.537 5.033 1.612 1.094 1.075 1.641 2.838 1.641 5.29v7.768c0 1.438-.199 2.596-.598 3.474a4.398 4.398 0 0 1-1.859 2.044c.755 4.183 1.68 10.222 2.775 18.118h-4.59c-.914-7.906-1.66-13.647-2.239-17.221h-1.782v17.22zm4.271-21.175h1.69c.824 0 1.417-.197 1.783-.592.365-.394.548-1.016.548-1.866V8.843c0-1.26-.152-2.151-.457-2.675-.304-.523-.944-.785-1.919-.785h-1.645z"/></g><g><path fill="#304247" d="M121.243 39.418V1.111h4.271v7.93c0 4.029-.03 6.816-.09 8.36 2.15-6.86 3.9-12.291 5.248-16.29h4.613l-6.135 17.268 6.611 21.039h-4.93c-.273-.909-2.075-7.081-5.407-18.517.06 2.045.09 5.536.09 10.474v8.043z"/></g><g><path fill="#304247" d="M137.519 39.418V1.111h10.315v4.271h-6.044v12.406h4.044v4.272h-4.044v13.087h6.294v4.271z"/></g><g><path fill="#304247" d="M149.444 5.382v-4.27h12.292v4.27h-4v34.036h-4.27V5.382z"/></g><g><path fill="#ff9738" d="M66.598 37.342H62.34V31.81h4.258z"/></g><g><path fill="#fff" d="M45.932 3175.049H73.43"/></g></g></svg>