<svg xmlns="http://www.w3.org/2000/svg" width="71" height="62" viewBox="0 0 71 62"><g><g><path fill="#ffbf5d" d="M57.95 35.545l-.328-2.219.456-2.59-7.766-13.44-1.029-6.649.66-10.024-12.767 12.873-5.483 3.644-4.626-2.668-3.714-3.825L19.924 24.1 6.576 36.5l13.348 2.715-3.64 11.08 10.552 1.932-1.03 8.751 9.917-5.57.503 6.757 12.662-8.15 8.79-.688 4.54-.334 6.523-2.896.218-1.979 1.688-1.86z"/></g><g><path fill="#304247" d="M57.95 35.545l.128-4.81-1.337.781.69 3.591z"/></g><g><path fill="#f48021" d="M49.943.624L37.175 13.495l6.384 1.846z"/></g><g><path fill="#304247" d="M50.313 17.295L49.943.624 43.56 15.342z"/></g><g><path fill="#ffbf5d" d="M39.63 34.547l-5.145-2.374 4.115-9.655 10.511 13.455z"/></g><g><path fill="#ffab4a" d="M31.693 17.14l5.482-3.643 13.137 3.798L38.6 22.518z"/></g><g><path fill="#ffab4a" d="M27.917 43.044l6.568-10.871 5.144 2.374-2.136 11.712z"/></g><g><path fill="#ff9738" d="M19.924 39.216l14.561-7.043-6.568 10.87-11.633 7.252z"/></g><g><path fill="#ffab4a" d="M22.298 32.648l-2.374 6.567 14.561-7.043z"/></g><g><path fill="#ff9738" d="M19.924 24.1L6.576 36.5l13.348 2.717 2.374-6.568z"/></g><g><path fill="#7b939c" d="M48.888 54.014l-7.586-1.74-3.81-6.015 9.338-2.69 6.985 3.222 3.862 6.536z"/></g><g><path fill="#304247" d="M68.74 50.098l1.907-3.84-6.137 2.007z"/></g><g><path fill="#ffab4a" d="M70.647 46.259L57.43 35.107l-5.174 3.879 12.253 9.279z"/></g><g><path fill="#f48021" d="M22.298 32.648L19.924 24.1l3.43-13.453z"/></g><g><path fill="#304247" d="M23.354 10.648l-.406 8.468-.65 13.532 12.188-.476L38.6 22.52z"/></g><g><path fill="#eaeeef" d="M16.284 50.295l10.552 1.932 1.081-9.183z"/></g><g><path fill="#d3dbde" d="M48.888 54.014l-7.586-1.74-5.579 3.133.503 6.758z"/></g><g><path fill="#a7b7bd" d="M25.807 60.978l5.529-6.964"/></g><g><path fill="#d3dbde" d="M27.917 43.044l-2.11 17.935 5.528-6.965 6.158-7.755z"/></g><g><path fill="#f48021" d="M37.493 46.259l2.137-11.712 9.482 1.426-4.14 3.08 7.284-.067 1.559 7.806-6.984-3.223z"/></g><g><path fill="#ffbf5d" d="M38.6 22.518l12.148 5.797-.435-11.02z"/></g><g><path fill="#ffab4a" d="M49.111 35.973l1.637-7.658L38.6 22.518z"/></g><g><path fill="#ffab4a" d="M58.079 30.735l-7.331-2.42-.435-11.02z"/></g><g><path fill="#f48021" d="M6.577 36.499l15.722-3.852-2.374 6.569z"/></g><g><path fill="#a7b7bd" d="M25.807 60.978l15.496-8.705-3.81-6.015z"/></g><g><path fill="#ff9738" d="M50.748 28.315l7.331 2.42-8.968 5.238z"/></g><g><path fill="#ff9738" d="M12.327 41.234l-10.129-.436-1.583 7.994z"/></g><g><path fill="#ffbf5d" d="M12.327 24.1L4.73 26.793.615 22.518z"/></g><g><path fill="#d3dbde" d="M21.639 54.014l-7.201 2.533 1.847 3.323z"/></g><g><path fill="#f48021" d="M16.39 14.473l-5.487-3.825-1.18 3.392z"/></g><g><path fill="#ff9738" d="M52.256 38.985l1.559 7.806 10.694 1.473z"/></g><g><path fill="#f48021" d="M56.741 31.517l-7.63 4.457 3.145 3.012 5.174-3.88z"/></g><g><path fill="#304247" d="M52.256 38.985l-3.145-3.012-4.138 3.081z"/></g><g><path fill="#eaeeef" d="M49.111 35.973l.003 1.718-1.54-.574z"/></g><g><path fill="#a7b7bd" d="M62.217 52.993l-4.54.334-3.862-6.536 10.694 1.473 4.231 1.833z"/></g></g></svg>