<svg xmlns="http://www.w3.org/2000/svg" width="122" height="25" viewBox="0 0 122 25"><g><g><path d="M60.153 10.615c-.383-1.991-1.36-3.596-3.186-4.583-2.778-1.504-6.25-.927-8.625 1.41-.388.382-.687.394-1.015.007-1.91-2.26-5.047-2.7-7.594-1.792a6.419 6.419 0 0 0-2.417 1.542c-.127.127-.379.152-.577.166-.035.002-.115-.278-.13-.432a3.324 3.324 0 0 1-.003-.698c.052-.438-.092-.602-.558-.586a46.41 46.41 0 0 1-3.03 0c-.424-.012-.519.127-.516.53.017 2.456.008 4.913.008 7.369 0 2.472.01 4.944-.009 7.416-.004.42.124.526.528.516a85.332 85.332 0 0 1 3.356-.003c.36.005.485-.1.482-.475-.018-2.006-.012-4.012-.007-6.017.002-.87 0-1.742.036-2.611.073-1.727.787-2.62 2.441-2.822.925-.114 1.893-.05 2.824.073 1.108.146 1.756.88 1.934 1.982.087.535.14 1.08.143 1.622.015 2.58.014 5.16-.002 7.742-.002.386.11.512.498.505a69.573 69.573 0 0 1 3.357.005c.453.013.538-.154.535-.564a848.014 848.014 0 0 1-.005-7.975c.002-.403.036-.81.102-1.206.212-1.265.84-1.963 2.116-2.14a10.556 10.556 0 0 1 2.687-.045c1.55.187 2.246 1.004 2.387 2.567.025.278.031.559.031.839.003 2.658.013 5.317-.008 7.975-.004.442.137.556.556.546a64.618 64.618 0 0 1 3.265 0c.443.013.58-.112.577-.568-.02-2.83 0-5.66-.018-8.49a10.018 10.018 0 0 0-.163-1.805z"/></g><g><path d="M101.268 11.011c0 3.296-.008 6.591.008 9.887.002.443-.115.598-.572.583a43.548 43.548 0 0 0-2.936 0c-.467.016-.614-.148-.554-.585a2.127 2.127 0 0 0-.003-.558c-.02-.136-.087-.366-.152-.373-.164-.018-.4.011-.502.12-1.084 1.145-2.436 1.71-3.978 1.807-3.903.248-7.41-2.03-8.338-6.155-.676-3.01-.121-5.782 2.015-8.118 1.963-2.148 5.544-3.033 8.089-1.946.666.285 1.216.836 1.833 1.244.19.126.426.182.64.271.047-.18.134-.362.135-.545.01-1.865.015-3.73-.003-5.596-.003-.377.094-.513.492-.504 1.103.026 2.207.026 3.31 0 .418-.01.528.132.523.534-.02 1.664-.007 3.327-.008 4.991v4.943zm-4.515 4.544a8.814 8.814 0 0 0 .033-3.835c-.26-1.25-1.028-2.023-2.29-2.279-1.295-.263-2.592-.274-3.875.06-1.07.277-1.76.971-2.014 2.045a8.795 8.795 0 0 0-.037 3.924c.267 1.241 1.043 1.988 2.28 2.225.606.116 1.229.153 1.81.221.614-.068 1.189-.1 1.752-.2 1.229-.222 2.048-.914 2.34-2.16z"/></g><g><path d="M27.105 8.83c.318.03.383.143.346.44-.582 4.657-1.152 9.315-1.73 13.973-.052.412.003.985-.239 1.186-.232.193-.788.016-1.198-.028-.772-.08-1.54-.196-2.313-.272-.348-.035-.46-.187-.398-.517a2.9 2.9 0 0 0 .066-.555c0-.17-.043-.34-.067-.512-.214.044-.45.045-.638.142-.478.25-.905.63-1.406.802-2.958 1.028-5.556.253-7.785-1.793-1.722-1.578-2.405-3.649-2.39-6.518.118-2.692 1.296-5.392 4.25-6.974 2.48-1.326 5.067-1.406 7.547.1.531.322.927.86 1.404 1.275.148.131.356.192.538.284.075-.15.193-.294.22-.454.173-1.035.166-1.032 1.203-.895.862.114 1.725.231 2.59.315zm-5.152 8.99c.225-.882.342-1.792.507-2.689a3.826 3.826 0 0 1-.113-.017c0-.248.014-.497-.003-.744-.085-1.219-.687-2.084-1.835-2.508a8.74 8.74 0 0 0-3.753-.509c-1.392.11-2.247.872-2.64 2.185a9.53 9.53 0 0 0-.39 3.452c.093 1.262.733 2.114 1.931 2.535a8.964 8.964 0 0 0 3.666.481c1.38-.104 2.29-.846 2.63-2.186z"/></g><g><path d="M122.016 6.093c-.008 4.99-.006 9.983.002 14.974 0 .304-.11.409-.408.406a152.357 152.357 0 0 0-3.312 0c-.288.005-.386-.104-.376-.38.014-.368.003-.738.003-1.271-.33.153-.593.203-.751.36-1.272 1.256-2.817 1.79-4.572 1.732-2.35-.078-4.36-.93-5.904-2.746-1.177-1.385-1.78-3.01-1.906-4.815-.175-2.46.424-4.684 2.072-6.572 2.107-2.414 6.032-3.288 8.775-1.91.559.28 1.022.743 1.546 1.1.163.111.378.15.569.22.057-.159.16-.316.163-.476.023-1.056.016-1.056 1.06-1.056.855 0 1.71.011 2.565-.005.327-.006.475.076.474.438zm-4.59 9.739c.19-.73.264-1.49.389-2.235l-.07-.015c-.025-.418-.038-.838-.08-1.254-.165-1.676-.942-2.586-2.524-2.913a8.468 8.468 0 0 0-3.38-.007c-1.471.288-2.21 1.066-2.471 2.537a9.35 9.35 0 0 0 .023 3.426c.228 1.193.914 2 2.113 2.28a8.462 8.462 0 0 0 4.147-.035c.943-.25 1.607-.84 1.854-1.784z"/></g><g><path d="M72.773 5.216c2.506.05 4.962.92 6.734 3.249 2.55 3.347 2.283 9.368-1.998 12.08-1.977 1.253-4.164 1.557-6.452 1.284-2.15-.257-4.003-1.126-5.412-2.802-1.597-1.897-2.13-4.138-1.816-6.546.586-4.506 3.921-7.276 8.944-7.265zm3.753 10.322c.285-1.23.278-2.465.053-3.7-.244-1.335-1.037-2.153-2.378-2.414a9.054 9.054 0 0 0-3.563.009c-1.299.263-2.08 1.07-2.33 2.358-.25 1.293-.26 2.594.081 3.879.271 1.014.908 1.699 1.932 1.942.675.16 1.372.224 1.985.319.706-.08 1.33-.113 1.937-.228 1.211-.23 1.998-.94 2.283-2.165z"/></g><g><path d="M7.189.87C6.168.77 5.152.63 4.135.506c-.84-.1-.83-.099-.932.753-.447 3.685-.898 7.37-1.35 11.053-.36 2.93-.72 5.858-1.09 8.786-.035.287.022.43.338.463 1.173.13 2.344.28 3.6.432.263.11.327-.116.359-.377l.299-2.404L6.842 7.095c.233-1.896.467-3.792.705-5.688.038-.292.036-.5-.358-.538z"/></g></g></svg>