<svg xmlns="http://www.w3.org/2000/svg" width="91" height="53" viewBox="0 0 91 53"><g><g><path fill="#010101" d="M68.531 42.848c-3.106-2.336-6.959-2.17-9.795-.094-2.392 1.752-4.488 5.384-2.61 10.077H34.901c.754-1.95 1.014-3.936.334-5.982-.67-2.022-1.91-3.617-3.743-4.623-3.317-1.82-6.543-1.333-9.137.722-2.927 2.32-3.92 6.092-2.297 9.931-2.186 0-4.343-.003-6.5.005-.292.001-.366-.13-.355-.39.017-.405.02-.81.02-1.216 0-5.34-.008-10.68.004-16.02.005-2.109.72-3.863 2.601-5.018 2.044-1.254 4.766-1.042 6.412.715 1.717 1.836 3.27 3.825 4.96 5.687 1.106 1.22 2.531 1.923 4.215 1.925 9.347.01 18.695-.007 28.043.016 2.195.006 3.815-1.005 5.16-2.62 1.358-1.63 2.653-3.322 4.1-4.87 2.666-2.858 7.433-1.865 8.773 1.856.271.757.391 1.562.393 2.366.021 5.674.021 11.348.036 17.022.001.346 0 .56-.47.554-2.12-.027-4.242-.01-6.432-.01 1.865-4.752-.239-8.343-2.487-10.033zm-24.826 5.447c-.362-.014-.49.234-.64.468-.146.228.003.412.144.566.613.67 1.235 1.332 1.855 1.996.323.345.618.363.95-.022a32.946 32.946 0 0 1 1.735-1.886c.225-.224.28-.455.198-.695-.098-.286-.356-.424-.676-.42-.594.002-1.188 0-1.783 0s-1.19.018-1.783-.007z"/></g><g><path fill="#f90429" d="M38.852 3.834c-4.608 4.345-9.141 4.426-13.646.176-.213.376-.14.664-.14.936-.005 4.792-.014 9.583.01 14.374.004.632-.133.905-.816.829-.565-.063-1.145-.045-1.715-.002-.51.04-.638-.143-.636-.638.018-4.005.01-8.009.01-12.014 0-1.573.016-3.147-.004-4.72C21.9 1.709 22.27.866 23.243.376c1.047-.53 1.972-.185 2.83.486 1.173.915 2.229 1.976 3.536 2.718 1.526.867 3.929.705 5.48-.571.88-.721 1.782-1.417 2.647-2.154.875-.745 1.814-1.014 2.878-.47 1.009.517 1.306 1.441 1.316 2.494.012 1.144.004 2.288.004 3.433 0 4.338-.011 8.676.014 13.015.004.6-.172.819-.764.753-.75-.083-1.718.326-2.2-.175-.442-.459-.127-1.408-.13-2.141-.01-4.266-.003-8.534-.002-12.8z"/></g><g><path fill="#f90429" d="M62.689 20.147c-.466.015-.544-.33-.67-.613a317.156 317.156 0 0 1-2.326-5.321c-.21-.493-.462-.7-1.044-.69-2.695.042-5.39.029-8.083.01-.476-.002-.732.083-.937.589-.754 1.86-1.588 3.688-2.4 5.525-.113.259-.243.503-.611.496-.951-.017-1.902-.005-2.94-.005.64-1.501 1.242-2.932 1.86-4.356.893-2.06 1.797-4.115 2.698-6.171 1.097-2.51 2.173-5.027 3.304-7.52C52.134.78 53.264.124 54.66.11c1.312-.01 2.414.548 2.99 1.81a406.616 406.616 0 0 1 2.697 6.078c1.42 3.248 2.83 6.5 4.24 9.752.328.756.642 1.518 1.008 2.387-1.048 0-1.978-.021-2.906.009zm-4.672-9.8c-.018-.126-.01-.23-.046-.313-.945-2.163-1.888-4.327-2.85-6.482-.21-.468-.656-.46-.896.019-.297.59-.535 1.21-.801 1.816-.715 1.635-1.43 3.27-2.171 4.96z"/></g><g><path fill="#f90429" d="M9.95.087c3.004-.001 6.01.01 9.013-.011.507-.004.74.094.69.66a9.515 9.515 0 0 0 .003 1.787c.064.637-.21.734-.77.727-2.146-.03-4.292-.012-6.439-.012-.96 0-.96 0-.96.997 0 5.03-.009 10.06.014 15.09.002.577-.123.817-.739.762a11.83 11.83 0 0 0-1.786-.005c-.482.028-.613-.167-.606-.621.021-1.311.007-2.622.008-3.934.001-3.837-.012-7.676.018-11.514.005-.621-.147-.804-.787-.792-2.264.042-4.53 0-6.795.029-.536.006-.716-.144-.677-.681C.183 1.953.18 1.328.141.71.11.199.303.074.794.077c3.051.02 6.103.01 9.155.01z"/></g><g><path fill="#f90429" d="M78.898 8.065c0-2.682.012-4.899-.01-7.116-.005-.518.08-.812.694-.739.771.091 1.777-.328 2.265.167.456.461.125 1.453.128 2.211.014 3.766.045 7.533-.007 11.298-.023 1.705.976 3.354 3.253 3.232 1.474-.078 2.956.003 4.434-.024.44-.008.59.117.568.56-.032.665-.005 1.333-.005 2.001 0 .242.025.493-.347.48-2.21-.074-4.446.251-6.63-.18-2.092-.414-3.977-2.354-4.227-4.712-.27-2.544-.025-5.096-.116-7.178z"/></g><g><path fill="#f90429" d="M70.733 7.541l.001 6.364c.001 2.141 1.056 3.198 3.188 3.2.715 0 1.431.018 2.146-.007.391-.015.562.093.542.513-.039.806.252 1.83-.14 2.359-.387.521-1.468.12-2.244.164-1.796.102-3.417-.28-4.774-1.58-1.287-1.233-1.826-2.757-1.842-4.462-.038-4.409-.006-8.819-.022-13.229 0-.484.114-.688.632-.655.642.042 1.29.043 1.93.002.488-.031.594.161.59.609-.019 2.241-.009 4.481-.009 6.722z"/></g><g><path fill="#010101" d="M27.477 52.88c-.62 0-1.244-.051-1.856.015-.56.06-.758-.193-.812-.667-.246-2.18-.322-4.355.177-6.517.265-1.15.6-2.251 1.313-3.23.692-.948 1.81-.775 2.413.098.8 1.156 1.15 2.483 1.344 3.82.216 1.5.342 3.024.173 4.549a26.992 26.992 0 0 0-.14 1.556c-.017.327-.192.382-.467.378-.715-.01-1.43-.002-2.145-.002z"/></g><g><path fill="#010101" d="M63.57 52.88c-.69 0-1.383-.014-2.072.006-.332.01-.465-.116-.51-.436-.3-2.151-.337-4.298.064-6.44.213-1.136.561-2.212 1.16-3.222.866-1.46 2.172-1.197 2.93.248.711 1.359.95 2.839 1.161 4.34.245 1.72.036 3.409-.15 5.108-.033.31-.142.407-.439.4-.715-.015-1.43-.004-2.144-.004z"/></g></g></svg>