<svg xmlns="http://www.w3.org/2000/svg" viewBox="0 0 125.65 34.25"><title>Ресурс 8</title><g id="Слой_2" data-name="Слой 2"><g id="Слой_1-2" data-name="Слой 1"><path d="M19.2,8.26c-1,0-2,.07-3,0-1.12-.11-1.9.16-2.27,1.28a3.19,3.19,0,0,1-.36.58A5.75,5.75,0,0,0,10.36,8,7.85,7.85,0,0,0,2.1,10.8a10.16,10.16,0,0,0-.32,11.93c2.9,4.09,8.93,4.51,11.53,1.42,0,0,.09,0,.13,0a4,4,0,0,1-3.19,4.9,8.34,8.34,0,0,1-2.06.13,9.71,9.71,0,0,1-4.7-1.52L1,32l.8.5a13.53,13.53,0,0,0,6.35,1.74,17,17,0,0,0,4.39-.36c4.16-1,6.65-4.34,6.67-8.79,0-5.42,0-10.84,0-16.26C19.23,8.66,19.21,8.5,19.2,8.26ZM9.79,20.86A3.71,3.71,0,0,1,6,16.91,3.75,3.75,0,0,1,9.9,13a3.73,3.73,0,0,1,3.71,4A3.68,3.68,0,0,1,9.79,20.86Z"/><path d="M78.12,9.79c-.16-.06-.22-.06-.25-.09-2.3-2.58-6.69-2.44-9.42-.52-5.16,3.62-5.18,12.62,0,16.31,2.7,1.94,7.35,2.21,9.79-.82,0,0,.08,0,.16,0,.28.48.55,1,.86,1.45.09.14.27.35.41.35,1.41,0,2.83,0,4.25,0V0H78.12Zm-3.7,11.77a4,4,0,0,1-3.89-4.21,3.92,3.92,0,1,1,7.83,0A4,4,0,0,1,74.42,21.56Z"/><path d="M30.31,7.81A9.46,9.46,0,0,0,21.69,19.2c.9,4.67,4.68,7.69,9.68,7.76,8.57,0,12.12-8.31,8.8-14.32C38.05,8.82,34.54,7.47,30.31,7.81Zm1.13,13.75a4,4,0,0,1-4-4.23,4,4,0,1,1,7.92,0A4,4,0,0,1,31.44,21.56Z"/><path d="M59.23,9.8c-4.17-3.23-10.81-2.64-14,1.35A9.39,9.39,0,0,0,44,21.62c1.75,3.73,5,5.22,8.72,5.35,3.58-.09,6.4-1.22,8.38-4A9.73,9.73,0,0,0,59.23,9.8ZM53,21.56a4,4,0,0,1-4-4.19,4,4,0,1,1,8,0A4,4,0,0,1,53,21.56Z"/><path d="M99.53,15.65a16.19,16.19,0,0,0-2.2-.59c-1.2-.25-2.42-.42-3.62-.68-.46-.09-1-.34-.84-.91a1.57,1.57,0,0,1,.92-.88,4.14,4.14,0,0,1,1.82-.11c1.33.21,2.64.55,4,.82.21,0,.58.08.64,0,.79-1.29,1.54-2.6,2.32-3.95a18.53,18.53,0,0,0-9.84-1.4A9.51,9.51,0,0,0,90,8.74a5.3,5.3,0,0,0-3.12,5.33,4.9,4.9,0,0,0,3.45,4.75,16.85,16.85,0,0,0,2.41.66c1.22.27,2.47.43,3.68.74.34.09.84.6.8.86a1.38,1.38,0,0,1-.83.93,7.66,7.66,0,0,1-2.19.22,12.15,12.15,0,0,1-5.48-1.43l-2.46,4.26c.53.26,1,.55,1.49.74a19.34,19.34,0,0,0,9.08,1,8.18,8.18,0,0,0,3.85-1.38A5.68,5.68,0,0,0,103,19.66,4.83,4.83,0,0,0,99.53,15.65Z"/><path d="M125.65,10.54V8.33h-2.9c0,.31,0,.57,0,.84,0,1.45,0,2.9,0,4.35a1.33,1.33,0,0,1-1.4,1.4,1.37,1.37,0,0,1-1.53-1.28,12.48,12.48,0,0,1,0-1.62V8.33h-2.83c0,2-.06,3.89,0,5.8a3.34,3.34,0,0,0,2.67,3.23,7.39,7.39,0,0,0,2.77.13,3.67,3.67,0,0,0,3.26-3.85C125.66,12.61,125.65,11.57,125.65,10.54Z"/><path d="M114.24,8.18a7.52,7.52,0,0,0-1.58.84l-.09-.69H109.9v9c.74,0,1.42,0,2.1,0s.78-.12.76-.73c0-1.4,0-2.8,0-4.2a1.49,1.49,0,0,1,1.79-1.63c.42,0,.83.11,1.32.18l.22-2.86A8,8,0,0,0,114.24,8.18Z"/><path d="M105.74,13.69a2,2,0,0,0-2,1.93,2,2,0,1,0,3.92,0A1.93,1.93,0,0,0,105.74,13.69Z"/></g></g></svg>