<svg xmlns="http://www.w3.org/2000/svg" viewBox="0 0 121.62 36.69"><defs><style>.cls-1{fill:#242020;}.cls-2{fill:#fe9402;}</style></defs><title>Ресурс 3</title><g id="Слой_2" data-name="Слой 2"><g id="Слой_1-2" data-name="Слой 1"><path class="cls-1" d="M25.63,3.64a5.26,5.26,0,0,1,5-3.43c2.48,0,4,1.31,4.9,3.46.24-.11.25-.35.34-.53a5.61,5.61,0,0,1,8.59-1.58,5.14,5.14,0,0,1,1.62,4c0,3.72,0,7.45,0,11.17,0,1.21,0,2.42,0,3.63,0,.65-.24.89-.9.9-1.07,0-2.14,0-3.21,0-.86,0-1-.18-1-1,0-3.69,0-7.37,0-11.06,0-.63,0-1.27-.06-1.9-.09-1.32-.65-2-1.69-2.17A2.5,2.5,0,0,0,36.3,6.71,6.87,6.87,0,0,0,36,9.05q0,5.55,0,11.12c0,.94-.16,1.1-1.1,1.1s-2.06,0-3.09,0c-.74,0-1-.22-1-.95,0-3.81,0-7.61,0-11.42a8.87,8.87,0,0,0-.22-2.18A2,2,0,0,0,28.6,5a2.18,2.18,0,0,0-2.29,1.44,8.46,8.46,0,0,0-.43,3.27c0,3.49,0,7,0,10.47,0,.91-.17,1.08-1.06,1.08-1,0-2.1,0-3.15,0-.71,0-.94-.23-.94-.91V1.57c0-.73.22-.95,1-.95,1,0,2,0,3,0,.69,0,.9.23.91.94Z"/><path class="cls-1" d="M65.71,10c0,1.27,0,2.54,0,3.8a5.3,5.3,0,0,0,1.15,3.53c.72.91.68,1-.2,1.79L64.4,21.09c-.53.44-.83.43-1.36,0a8.51,8.51,0,0,1-1.38-1.55c-.48-.69-.49-.69-1.08-.13a6.94,6.94,0,0,1-4.11,2.07,9,9,0,0,1-3.19-.12,5.13,5.13,0,0,1-3.89-4.77c-.32-4,1.82-6.82,5.9-7.66a38.61,38.61,0,0,1,4.41-.6c.53,0,.83-.14.75-.78s0-1.11-.12-1.66a2.14,2.14,0,0,0-1.5-1.68,3,3,0,0,0-4,2.05c-.14.65-.39.77-1.07.69L51,6.63c-1-.09-1.14-.34-.92-1.26A6.14,6.14,0,0,1,53.77,1,10.94,10.94,0,0,1,62.05.69a5.19,5.19,0,0,1,3.62,5.06c0,1.42,0,2.85,0,4.28Zm-5.27,2.54c0-.28,0-.56,0-.83s-.07-.52-.48-.5a17.66,17.66,0,0,0-1.77.17c-2.35.4-3.51,1.8-3.33,4a2.29,2.29,0,0,0,1.26,2.08,2.46,2.46,0,0,0,2.53-.28,3.51,3.51,0,0,0,1.17-1.39A6.87,6.87,0,0,0,60.44,12.57Z"/><path class="cls-1" d="M16.35,10c0,1.25,0,2.5,0,3.75a5.42,5.42,0,0,0,1.19,3.63c.67.84.63,1-.15,1.66l-2.3,2c-.58.5-.85.48-1.44,0a7,7,0,0,1-1.46-1.71c-.26-.43-.42-.49-.8-.1a7,7,0,0,1-3.57,2.12,8.69,8.69,0,0,1-3.83,0A5.14,5.14,0,0,1,0,16.5c-.29-4,1.84-6.76,5.91-7.6a35.29,35.29,0,0,1,4.47-.6c.49,0,.74-.15.68-.72A14.2,14.2,0,0,0,11,5.86a2.15,2.15,0,0,0-1.5-1.69,3.06,3.06,0,0,0-4,2.06c-.14.65-.39.77-1.07.69L1.63,6.63C.68,6.54.49,6.29.71,5.37A6.3,6.3,0,0,1,4.91.74,11.08,11.08,0,0,1,12.36.57a5.29,5.29,0,0,1,4,5.3c0,1.39,0,2.78,0,4.16ZM11.08,12.6a7.63,7.63,0,0,1,0-.83c0-.4-.07-.56-.51-.53s-1.15.07-1.71.16c-2.37.4-3.56,1.82-3.37,4.07a2.32,2.32,0,0,0,3.77,1.79,3.73,3.73,0,0,0,1.21-1.43A6.92,6.92,0,0,0,11.08,12.6Z"/><path class="cls-1" d="M111.17,3.9c.22-.41.42-.84.66-1.23,1.22-2,3.1-2.79,5.68-2.33a4.84,4.84,0,0,1,3.84,4,23.23,23.23,0,0,1,.27,4.33c0,3.84,0,7.68,0,11.53,0,.86-.18,1-1.05,1h-3.09c-.82,0-1-.19-1-1V8.74a8,8,0,0,0-.21-1.95A2.1,2.1,0,0,0,114.52,5a2.37,2.37,0,0,0-2.44,1.24,6.38,6.38,0,0,0-.73,3.15q0,5.34,0,10.7c0,1-.18,1.19-1.21,1.19s-2,0-3,0c-.69,0-.94-.24-.94-.93q0-9.42,0-18.84c0-.62.24-.87.87-.88q1.61,0,3.21,0c.59,0,.81.25.81.85,0,.81,0,1.61,0,2.42Z"/><path class="cls-1" d="M103.36,11.07a11.86,11.86,0,0,1-2.49,7.71A7.87,7.87,0,0,1,88.06,18a13.63,13.63,0,0,1-1.74-8.34,13.09,13.09,0,0,1,.87-4A7.83,7.83,0,0,1,94.53.22a7.91,7.91,0,0,1,7.78,5.24A15.67,15.67,0,0,1,103.36,11.07Zm-11.51-.42c0,.59,0,1.18,0,1.78a9.51,9.51,0,0,0,.86,4,2.32,2.32,0,0,0,4.08.19,4.5,4.5,0,0,0,.63-1.52,21.39,21.39,0,0,0,.3-6,11,11,0,0,0-.62-3.3,2.3,2.3,0,0,0-2.28-1.57c-1.27,0-2.17.76-2.61,2.31A14,14,0,0,0,91.85,10.65Z"/><path class="cls-2" d="M48.84,36.69A47.13,47.13,0,0,1,19.05,25.94c-.54-.43-1.05-.9-1.58-1.35-.29-.25-.51-.57-.27-.93s.64-.27,1-.07a62.08,62.08,0,0,0,11.22,5,65,65,0,0,0,13.21,2.95,62,62,0,0,0,11.15.3,63.17,63.17,0,0,0,20.44-4.77A3,3,0,0,1,74.6,27a1.06,1.06,0,0,1,1.28.47,1,1,0,0,1-.43,1.24A30.13,30.13,0,0,1,72,30.91,46.12,46.12,0,0,1,58.3,35.79,50.88,50.88,0,0,1,48.84,36.69Z"/><path class="cls-1" d="M77.47,4.73h-6.1c-.9,0-1.06-.17-1.07-1.08,0-.73,0-1.47,0-2.2s.21-.88.89-.88h12c.72,0,.93.23.94,1,0,0,0,.08,0,.12A5.6,5.6,0,0,1,82.76,6c-1.94,2.6-3.75,5.3-5.61,8-.11.15-.21.31-.36.54a21,21,0,0,1,3.77.37,12.39,12.39,0,0,1,3.06,1.08,1.41,1.41,0,0,1,.84,1.38c0,.85,0,1.7,0,2.56s-.44,1-1.17.7a14.12,14.12,0,0,0-12.59,0c-.66.31-1.09.07-1.1-.66,0-1,0-2,0-3a3.21,3.21,0,0,1,.64-1.82c2.28-3.25,4.55-6.52,6.83-9.78Z"/><path class="cls-2" d="M74.93,24.72a33.18,33.18,0,0,0-4.56.32c-.28,0-.63.14-.77-.23s.12-.55.38-.73a10.58,10.58,0,0,1,4.31-1.69,14.19,14.19,0,0,1,5.84.07c1.33.31,1.56.55,1.5,1.89a13.85,13.85,0,0,1-3.55,8.83,6,6,0,0,1-.75.67.54.54,0,0,1-.7.12c-.27-.18-.15-.46-.06-.7.43-1.18.89-2.36,1.31-3.55A14.55,14.55,0,0,0,78.56,27c.21-1.56-.2-2.11-1.79-2.24C76.16,24.68,75.54,24.72,74.93,24.72Z"/></g></g></svg>