<svg xmlns="http://www.w3.org/2000/svg" viewBox="0 0 115.27 42.88"><defs><style>.cls-1{fill:#7831ff;}</style></defs><title>Ресурс 4</title><g id="Слой_2" data-name="Слой 2"><g id="Слой_1-2" data-name="Слой 1"><path class="cls-1" d="M20.38,13A12,12,0,0,0,8.91,11.06a29.39,29.39,0,0,0-2.86,1.2L6.52,11a5.84,5.84,0,0,1,5-3.9c.89-.14,1.8-.19,2.7-.27l4.17-.41c1.36-.12,2.73-.22,4.09-.36a.46.46,0,0,0,.32-.33c0-1.81,0-3.63,0-5.44,0-.22-.09-.3-.32-.28L20.28.23C18.64.42,17,.63,15.36.8A35.12,35.12,0,0,0,9.17,1.93,11,11,0,0,0,1.4,9.08,28.84,28.84,0,0,0,0,17.57C0,19.1,0,20.63.09,22.16a15.17,15.17,0,0,0,1,4.67,10.55,10.55,0,0,0,7,6.92,14.7,14.7,0,0,0,7.39.29,10.35,10.35,0,0,0,8.22-7A14.22,14.22,0,0,0,24,19,10.31,10.31,0,0,0,20.38,13Zm-3.45,13.5a4.89,4.89,0,0,1-4.34,2.74c-2.95.14-5.06-1.78-5.53-4.76a10.6,10.6,0,0,1,.41-5.64,4.84,4.84,0,0,1,4.17-3.23,5.16,5.16,0,0,1,5.88,4.48c.13.76.17,1.54.25,2.32A9.26,9.26,0,0,1,16.93,26.48Z"/><path class="cls-1" d="M73.92,12.33a10.49,10.49,0,0,0-7.11-1.85,9,9,0,0,0-5.5,2.28l-.67.63c0-.73,0-1.38,0-2,0-.33-.11-.44-.45-.43-1.65,0-3.31,0-5,0-.45,0-.54.14-.54.55q0,15.42,0,30.83c0,.58,0,.58.6.58h5.19c.61,0,.63,0,.63-.61V31.86l.6.52a9.79,9.79,0,0,0,8,1.82,9.94,9.94,0,0,0,7.59-5.73,13.77,13.77,0,0,0,.92-9.63A10.81,10.81,0,0,0,73.92,12.33ZM71.38,26a5.06,5.06,0,0,1-4.54,3.27,5.17,5.17,0,0,1-5.5-4.49c-.14-.77-.18-1.57-.27-2.35a9.34,9.34,0,0,1,.83-4,4.84,4.84,0,0,1,4.31-2.76,5,5,0,0,1,4.11,1.55,5.69,5.69,0,0,1,1.44,3.07A10.85,10.85,0,0,1,71.38,26Z"/><path class="cls-1" d="M43.72,10.85a14.08,14.08,0,0,0-7.37-.24,10.6,10.6,0,0,0-8,6.82,13.77,13.77,0,0,0-.68,7.22,10.91,10.91,0,0,0,4,7.07,14.22,14.22,0,0,0,8.69,2.92,24,24,0,0,0,3.17-.16A15.81,15.81,0,0,0,48.59,33a.57.57,0,0,0,.4-.61c0-1.38,0-2.75,0-4.13a3.21,3.21,0,0,0-.05-.39,2.26,2.26,0,0,0-.28.07,12.49,12.49,0,0,1-4,1.18,14,14,0,0,1-6.3-.37A6,6,0,0,1,34.75,26a12.39,12.39,0,0,1-.59-1.54H50.45c.36,0,.51-.08.53-.45A15.87,15.87,0,0,0,50,16.71,9.61,9.61,0,0,0,43.72,10.85Zm-9.49,8.9A5.06,5.06,0,0,1,39.6,15.2a4.84,4.84,0,0,1,5.09,4.55Z"/><path class="cls-1" d="M97.09,10.92a.56.56,0,0,0-.62.47c-1.32,3.86-2.66,7.73-4,11.59-.36,1-.71,2.06-1.09,3.16-.07-.15-.1-.23-.13-.31-.93-2.47-1.87-4.94-2.8-7.42l-2.64-7c-.09-.24-.15-.46-.51-.46-2.09,0-4.19,0-6.29,0l-.32,0c.08.22.13.39.2.56q4.42,11.09,8.86,22.15a.72.72,0,0,1-.11.77,4.88,4.88,0,0,1-4.11,2c-.88,0-1.76,0-2.64,0-.31,0-.42.11-.42.42q0,2.55,0,5.1c0,.34.12.44.45.43,1,0,2.1,0,3.15,0a13,13,0,0,0,2.42-.31,10.69,10.69,0,0,0,6.77-5.23,29.09,29.09,0,0,0,2.09-4.91Q99.19,21.67,103,11.4c.05-.13.07-.28.12-.47h-.44C100.81,10.93,99,10.94,97.09,10.92Z"/><path class="cls-1" d="M114.85,26.75c-2.13,0-4.25,0-6.38,0-.37,0-.44.13-.44.47,0,2.07,0,4.13,0,6.2,0,.15,0,.3,0,.45h7.17a1.34,1.34,0,0,0,0-.22q0-3.27,0-6.55C115.27,26.77,115.1,26.75,114.85,26.75Z"/><path class="cls-1" d="M108.75,23.26h5.83l.4,0V.72h-6.67c0,.07,0,.14,0,.21V22.79C108.3,23.13,108.38,23.27,108.75,23.26Z"/></g></g></svg>