<svg xmlns="http://www.w3.org/2000/svg" width="92" height="100" viewBox="0 0 92 100"><g><g><path fill="none" stroke="#41404d" stroke-linecap="round" stroke-linejoin="round" stroke-miterlimit="20" stroke-width="2.55" d="M21.958 12.493C29.18 5.475 39.034 1.155 49.899 1.155c22.144 0 40.095 17.951 40.095 40.094 0 22.144-17.951 40.096-40.095 40.096S9.804 63.393 9.804 41.25a39.94 39.94 0 0 1 3.825-17.112"/></g><g><path fill="#ffbf5d" d="M61.468 66.159A27.35 27.35 0 0 1 49.9 68.708c-15.165 0-27.458-12.293-27.458-27.458S34.735 13.792 49.9 13.792c15.164 0 27.458 12.293 27.458 27.458a27.352 27.352 0 0 1-6.67 17.939"/><path fill="none" stroke="#41404d" stroke-linecap="round" stroke-linejoin="round" stroke-miterlimit="20" stroke-width="2.55" d="M61.468 66.159A27.35 27.35 0 0 1 49.9 68.708c-15.165 0-27.458-12.293-27.458-27.458S34.735 13.792 49.9 13.792c15.164 0 27.458 12.293 27.458 27.458a27.352 27.352 0 0 1-6.67 17.939"/></g><g><path fill="#dadada" d="M65.1 41.25c0 8.395-6.805 15.201-15.2 15.201-8.396 0-15.202-6.806-15.202-15.202s6.806-15.2 15.202-15.2c8.395 0 15.2 6.804 15.2 15.2z"/></g><g><path fill="none" stroke="#41404d" stroke-linecap="round" stroke-linejoin="round" stroke-miterlimit="20" stroke-width="2.55" d="M65.1 41.25c0 8.395-6.805 15.201-15.2 15.201-8.396 0-15.202-6.806-15.202-15.202s6.806-15.2 15.202-15.2c8.395 0 15.2 6.804 15.2 15.2z"/></g><g><path fill="#ffbf5d" d="M55.06 41.25a5.16 5.16 0 1 1-10.322 0 5.16 5.16 0 0 1 10.322 0z"/></g><g><path fill="none" stroke="#41404d" stroke-linecap="round" stroke-linejoin="round" stroke-miterlimit="20" stroke-width="2.55" d="M55.06 41.25a5.16 5.16 0 1 1-10.322 0 5.16 5.16 0 0 1 10.322 0z"/></g><g><path fill="#dadada" d="M19.904 82.5l-2.627-2.043 15.07-22.091 5.247 4.078z"/></g><g><path fill="none" stroke="#41404d" stroke-linecap="round" stroke-linejoin="round" stroke-miterlimit="20" stroke-width="2.55" d="M19.904 82.5v0l-2.627-2.043v0l15.07-22.091v0l5.247 4.078v0L19.904 82.5v0z"/></g><g><path fill="#fff" d="M45.605 46.724c-5.101.749-13.258 11.642-13.258 11.642l5.248 4.079s8.178-10.122 8.01-15.721L49.9 41.2"/><path fill="none" stroke="#41404d" stroke-linecap="round" stroke-linejoin="round" stroke-miterlimit="20" stroke-width="2.55" d="M45.605 46.724c-5.101.749-13.258 11.642-13.258 11.642v0l5.248 4.079v0s8.178-10.122 8.01-15.721L49.9 41.2v0"/></g><g><path fill="none" stroke="#41404d" stroke-linecap="round" stroke-linejoin="round" stroke-miterlimit="20" stroke-width="2.55" d="M18.59 81.478L8.543 94.407"/></g><g><path fill="#ffbf5d" d="M17.277 80.457S9.5 77.805 2.043 86.59l9.422 4.055 7.125-9.166z"/></g><g><path fill="none" stroke="#41404d" stroke-linecap="round" stroke-linejoin="round" stroke-miterlimit="20" stroke-width="2.55" d="M17.277 80.457v0S9.5 77.805 2.043 86.59l9.422 4.055v0l7.125-9.166v0l-1.313-1.022v0z"/></g><g><path fill="#ffbf5d" d="M19.904 82.5s4.49 6.881-2.184 16.275l-6.255-8.13 7.126-9.166z"/></g><g><path fill="none" stroke="#41404d" stroke-linecap="round" stroke-linejoin="round" stroke-miterlimit="20" stroke-width="2.55" d="M19.904 82.5v0s4.49 6.881-2.184 16.275l-6.255-8.13v0l7.126-9.166v0l1.313 1.02v0z"/></g></g></svg>