<svg xmlns="http://www.w3.org/2000/svg" width="115" height="106" viewBox="0 0 115 106"><g><g><path fill="#fff" d="M21.932 2189.049H49.43"/></g><g><path fill="#ffbf5d" d="M44.093 41.241v53.517h25.965v-37.16z"/></g><g><path fill="none" stroke="#41404d" stroke-linecap="round" stroke-linejoin="round" stroke-miterlimit="20" stroke-width="2.55" d="M18.688 94.758v0h94.625v0l-9.915-9.265v0"/></g><g><path fill="none" stroke="#41404d" stroke-linecap="round" stroke-linejoin="round" stroke-miterlimit="20" stroke-width="2.55" d="M11.006 24.16v0V1.909v0l9.265 9.915v0"/></g><g><path fill="none" stroke="#41404d" stroke-linecap="round" stroke-linejoin="round" stroke-miterlimit="20" stroke-width="2.55" d="M11.006 94.758V37.635"/></g><g><path fill="none" stroke="#41404d" stroke-linecap="round" stroke-linejoin="round" stroke-miterlimit="20" stroke-width="2.55" d="M11.006 1.908l-9.265 9.915"/></g><g><path fill="none" stroke="#41404d" stroke-linecap="round" stroke-linejoin="round" stroke-miterlimit="20" stroke-width="2.55" d="M25.18 71.833v0l18.914-30.592v0l25.964 16.357v0L102.316 4.97v0l-12.65 5.979v0"/></g><g><path fill="none" stroke="#41404d" stroke-linecap="round" stroke-linejoin="round" stroke-miterlimit="20" stroke-width="2.55" d="M11.006 94.758l10.455-16.91"/></g><g><path fill="none" stroke="#41404d" stroke-linecap="round" stroke-linejoin="round" stroke-miterlimit="20" stroke-width="2.55" d="M103.398 104.023l9.915-9.265"/></g><g><path fill="none" stroke="#41404d" stroke-linecap="round" stroke-linejoin="round" stroke-miterlimit="20" stroke-width="2.55" d="M102.118 18.263l.198-13.293"/></g><g><path fill="#dadada" d="M48.917 41.241a4.823 4.823 0 1 1-9.647 0 4.823 4.823 0 0 1 9.647 0z"/></g><g><path fill="none" stroke="#41404d" stroke-linecap="round" stroke-linejoin="round" stroke-miterlimit="20" stroke-width="2.55" d="M48.917 41.241a4.823 4.823 0 1 1-9.647 0 4.823 4.823 0 0 1 9.647 0z"/></g><g><path fill="#dadada" d="M73.16 57.598a3.102 3.102 0 1 1-6.204-.001 3.102 3.102 0 0 1 6.205 0z"/></g><g><path fill="none" stroke="#41404d" stroke-linecap="round" stroke-linejoin="round" stroke-miterlimit="20" stroke-width="2.55" d="M73.16 57.598a3.102 3.102 0 1 1-6.204-.001 3.102 3.102 0 0 1 6.205 0z"/></g><g><path fill="none" stroke="#41404d" stroke-dasharray="4.728 9.456" stroke-linecap="round" stroke-linejoin="round" stroke-miterlimit="20" stroke-width="2.55" d="M70.058 94.758V60.7"/></g><g><path fill="none" stroke="#41404d" stroke-dasharray="4.728 9.456" stroke-linecap="round" stroke-linejoin="round" stroke-miterlimit="20" stroke-width="2.55" d="M44.093 94.758V46.064"/></g></g></svg>