<svg xmlns="http://www.w3.org/2000/svg" width="94" height="94" viewBox="0 0 94 94"><g><g><path fill="#dadada" d="M1.67 40.646C3.81 31.812 21.468 25.99 24.387 33.12c2.748-.714 3.873-1.658 2.918-6.284-.955-4.627 3.359-12.47 8.849-13.255 5.492-.784-5.72-9.23-5.72-9.23S7.452 11.759 1.672 40.646z"/></g><g><path fill="none" stroke="#41404d" stroke-linecap="round" stroke-linejoin="round" stroke-miterlimit="20" stroke-width="2.55" d="M79.96 15.38c7.848 8.208 12.668 19.333 12.668 31.585 0 25.245-20.465 45.71-45.709 45.71-25.245 0-45.71-20.465-45.71-45.71s20.465-45.71 45.71-45.71c7.1 0 13.821 1.62 19.816 4.508"/></g><g><path fill="#ffbf5d" d="M54.11 71.495c-1.608 2.184-2.66 4.37-2.66 6.257 0 5.638-4.88 15.785-10.198 11.717-9.209-7.045-12.55-10.571-9.02-18.13 3.53-7.558-3.582-12.553-4.929-17.703-1.346-5.15.955-9.464 0-13.386-.955-3.922 6.105-5.13 9.635-2.761 3.53 2.369 13.334 3.938 18.04 5.506 4.706 1.569 11.766 5.975 11.373 9.066-.39 3.092 5.523 6.008.016 8.864-2.054 1.065-4.652 2.893-7.1 5.058"/><path fill="none" stroke="#41404d" stroke-linecap="round" stroke-linejoin="round" stroke-miterlimit="20" stroke-width="2.55" d="M54.11 71.495c-1.608 2.184-2.66 4.37-2.66 6.257 0 5.638-4.88 15.785-10.198 11.717-9.209-7.045-12.55-10.571-9.02-18.13 3.53-7.558-3.582-12.553-4.929-17.703-1.346-5.15.955-9.464 0-13.386-.955-3.922 6.105-5.13 9.635-2.761 3.53 2.369 13.334 3.938 18.04 5.506 4.706 1.569 11.766 5.975 11.373 9.066-.39 3.092 5.523 6.008.016 8.864-2.054 1.065-4.652 2.893-7.1 5.058"/></g><g><path fill="none" stroke="#41404d" stroke-linecap="round" stroke-linejoin="round" stroke-miterlimit="20" stroke-width="2.55" d="M86.085 23.447c-7.575 1.9-9.929 8.292-7.575 14.116 2.352 5.824-2.534 12.192-.875 14.498 1.659 2.307 14.112 7.329 11.399 12.7"/></g><g><path fill="none" stroke="#41404d" stroke-linecap="round" stroke-linejoin="round" stroke-miterlimit="20" stroke-width="2.55" d="M1.67 40.646C3.81 31.812 21.468 25.99 24.387 33.12c2.748-.714 3.873-1.658 2.918-6.284-.955-4.627 3.359-12.47 8.849-13.255 5.492-.784-5.72-9.23-5.72-9.23v0"/></g><g><path fill="#41404d" d="M42.39 52.97a2.495 2.495 0 1 1-4.99 0 2.495 2.495 0 0 1 4.99 0z"/></g><g><path fill="#41404d" d="M19.669 21.74a2.495 2.495 0 1 1-4.99 0 2.495 2.495 0 0 1 4.99 0z"/></g><g><path fill="#41404d" d="M47.798 71.5a2.495 2.495 0 1 1-4.99-.001 2.495 2.495 0 0 1 4.99.001z"/></g><g><path fill="#41404d" d="M86.99 34.55a2.495 2.495 0 1 1-4.99 0 2.495 2.495 0 0 1 4.99 0z"/></g><g><path fill="none" stroke="#41404d" stroke-dasharray="4.728 9.456" stroke-linecap="round" stroke-linejoin="round" stroke-miterlimit="20" stroke-width="2.55" d="M84.495 34.55c-15.528-6.98-40.729 1.647-44.6 17.857"/></g><g><path fill="none" stroke="#41404d" stroke-dasharray="4.728 9.456" stroke-linecap="round" stroke-linejoin="round" stroke-miterlimit="20" stroke-width="2.55" d="M39.895 72.605c-38.224 3.726-14.33-36.939-23.35-49.158"/></g></g></svg>