<svg xmlns="http://www.w3.org/2000/svg" width="116" height="104" viewBox="0 0 116 104"><g><g><path fill="#ffbf5d" d="M49.682 70.841c-5.024-3.608-8.296-9.5-8.296-16.159 0-10.98 8.901-19.883 19.882-19.883 10.981 0 19.883 8.902 19.883 19.883S72.25 74.564 61.268 74.564"/><path fill="none" stroke="#41404d" stroke-linecap="round" stroke-linejoin="round" stroke-miterlimit="20" stroke-width="2.55" d="M49.682 70.841c-5.024-3.608-8.296-9.5-8.296-16.159 0-10.98 8.901-19.883 19.882-19.883 10.981 0 19.883 8.902 19.883 19.883S72.25 74.564 61.268 74.564"/></g><g><path fill="none" stroke="#41404d" stroke-linecap="round" stroke-linejoin="round" stroke-miterlimit="20" stroke-width="2.55" d="M48.509 58.281a13.276 13.276 0 0 1-.495-3.599c0-7.32 5.934-13.255 13.255-13.255 7.32 0 13.254 5.935 13.254 13.255 0 7.32-5.934 13.254-13.254 13.254"/></g><g><path fill="none" stroke="#41404d" stroke-linecap="round" stroke-linejoin="round" stroke-miterlimit="20" stroke-width="2.55" d="M67.552 11.588a7.585 7.585 0 1 1-15.17-.001 7.585 7.585 0 0 1 15.17 0z"/></g><g><path fill="#dadada" d="M96.32 94.945a7.585 7.585 0 1 1-15.17-.001 7.585 7.585 0 0 1 15.17.001z"/></g><g><path fill="none" stroke="#41404d" stroke-linecap="round" stroke-linejoin="round" stroke-miterlimit="20" stroke-width="2.55" d="M96.32 94.945a7.585 7.585 0 1 1-15.17-.001 7.585 7.585 0 0 1 15.17.001z"/></g><g><path fill="#ffbf5d" d="M34.269 91.993a7.584 7.584 0 1 1-15.168 0 7.584 7.584 0 0 1 15.168 0z"/></g><g><path fill="none" stroke="#41404d" stroke-linecap="round" stroke-linejoin="round" stroke-miterlimit="20" stroke-width="2.55" d="M34.269 91.993a7.584 7.584 0 1 1-15.168 0 7.584 7.584 0 0 1 15.168 0z"/></g><g><path fill="#dadada" d="M22.623 28.898c0 5.77-4.678 10.448-10.448 10.448-5.77 0-10.448-4.678-10.448-10.448 0-5.771 4.678-10.448 10.448-10.448 5.77 0 10.448 4.677 10.448 10.448z"/></g><g><path fill="none" stroke="#41404d" stroke-linecap="round" stroke-linejoin="round" stroke-miterlimit="20" stroke-width="2.55" d="M22.623 28.898c0 5.77-4.678 10.448-10.448 10.448-5.77 0-10.448-4.678-10.448-10.448 0-5.771 4.678-10.448 10.448-10.448 5.77 0 10.448 4.677 10.448 10.448z"/></g><g><path fill="#ffbf5d" d="M114.795 10.287a8.886 8.886 0 0 1-17.771 0 8.886 8.886 0 1 1 17.77 0z"/></g><g><path fill="none" stroke="#41404d" stroke-linecap="round" stroke-linejoin="round" stroke-miterlimit="20" stroke-width="2.55" d="M114.795 10.287a8.886 8.886 0 0 1-17.771 0 8.886 8.886 0 1 1 17.77 0z"/></g><g><path fill="none" stroke="#41404d" stroke-linecap="round" stroke-linejoin="round" stroke-miterlimit="20" stroke-width="2.55" d="M104.727 50.313a4.443 4.443 0 1 1-8.885.001 4.443 4.443 0 0 1 8.885 0z"/></g><g><path fill="none" stroke="#41404d" stroke-linecap="round" stroke-linejoin="round" stroke-miterlimit="20" stroke-width="2.55" d="M20.795 34.8l22.67 11.07"/></g><g><path fill="none" stroke="#41404d" stroke-linecap="round" stroke-linejoin="round" stroke-miterlimit="20" stroke-width="2.55" d="M22.623 40.64l13.88 6.778"/></g><g><path fill="none" stroke="#41404d" stroke-linecap="round" stroke-linejoin="round" stroke-miterlimit="20" stroke-width="2.55" d="M59.967 19.172V34.8"/></g><g><path fill="none" stroke="#41404d" stroke-linecap="round" stroke-linejoin="round" stroke-miterlimit="20" stroke-width="2.55" d="M84.45 32.58l-8.37 8.848"/></g><g><path fill="none" stroke="#41404d" stroke-linecap="round" stroke-linejoin="round" stroke-miterlimit="20" stroke-width="2.55" d="M99.61 16.553l-6.702 7.085"/></g><g><path fill="none" stroke="#41404d" stroke-linecap="round" stroke-linejoin="round" stroke-miterlimit="20" stroke-width="2.55" d="M95.841 51.021l-14.69 1.569"/></g><g><path fill="none" stroke="#41404d" stroke-linecap="round" stroke-linejoin="round" stroke-miterlimit="20" stroke-width="2.55" d="M84.45 88.693L72.868 70.83"/></g><g><path fill="none" stroke="#41404d" stroke-linecap="round" stroke-linejoin="round" stroke-miterlimit="20" stroke-width="2.55" d="M78.907 88.532l-4.384-6.762"/></g><g><path fill="none" stroke="#41404d" stroke-linecap="round" stroke-linejoin="round" stroke-miterlimit="20" stroke-width="2.55" d="M32.37 86.981l15.375-17.726"/></g></g></svg>