<svg xmlns="http://www.w3.org/2000/svg" width="120" height="156" viewBox="0 0 120 156"><g><g><path fill="#dadada" d="M119.147 37.852a.193.193 0 0 0 .192-.192V29.3a.195.195 0 0 0-.192-.192h-.624v-10.34c0-4.762-3.877-8.636-8.632-8.636h-2.419c.005-.03.03-.05.03-.08V8.995a.909.909 0 0 0-.906-.913H94.698a.91.91 0 0 0-.91.912v1.057c0 .03.03.05.033.08H17.966c-4.758 0-8.633 3.875-8.633 8.636v128.49c0 4.762 3.875 8.636 8.633 8.636h91.924c4.756 0 8.634-3.874 8.634-8.636v-97.22h.585a.23.23 0 0 0 .23-.227v-8.288a.23.23 0 0 0-.23-.227h-.585v-3.443z"/></g><g><path fill="#dadada" d="M104.555 146.495H5.147a3.541 3.541 0 0 1-3.543-3.542V6.973a3.543 3.543 0 0 1 3.543-3.544h99.408a3.543 3.543 0 0 1 3.543 3.543v135.981a3.541 3.541 0 0 1-3.543 3.542z"/></g><g><path fill="#41404d" d="M79.165 147.394H8.892c-4.515 0-8.19-3.674-8.19-8.186V10.718c0-4.513 3.675-8.188 8.19-8.188h12.371a.9.9 0 0 1 0 1.798H8.892a6.395 6.395 0 0 0-6.391 6.39v128.49a6.398 6.398 0 0 0 6.391 6.391h70.273c.494 0 .9.403.9.898a.9.9 0 0 1-.9.897z"/></g><g><path fill="#41404d" d="M100.81 147.394h-7.936a.898.898 0 0 1 0-1.794h7.936a6.398 6.398 0 0 0 6.39-6.391V10.719a6.396 6.396 0 0 0-6.39-6.39H42.116a.9.9 0 0 1-.902-.898c0-.497.404-.9.902-.9h58.694c4.514 0 8.188 3.675 8.188 8.188v128.49c0 4.512-3.674 8.186-8.188 8.186z"/></g><g><path fill="#fff" d="M101.78 140.654H8.558a.81.81 0 0 1-.809-.812V10.082c0-.448.362-.81.81-.81h93.221a.81.81 0 0 1 .81.81v129.76a.81.81 0 0 1-.81.812z"/></g><g><path fill="#41404d" d="M100.923 10.17c.424 0 .772.346.772.77v128.046a.771.771 0 0 1-.772.769H9.415a.768.768 0 0 1-.768-.77V10.94a.77.77 0 0 1 .768-.77zm0 131.383a2.57 2.57 0 0 0 2.567-2.567V10.94a2.57 2.57 0 0 0-2.567-2.568H9.415a2.57 2.57 0 0 0-2.567 2.568v128.046a2.57 2.57 0 0 0 2.567 2.567z"/></g><g><path fill="#41404d" d="M85.152.033h12.832c.244 0 .44.196.44.44v1.992a.44.44 0 0 1-.44.444H85.152a.443.443 0 0 1-.443-.444V.473c0-.244.2-.44.443-.44z"/></g><g><path fill="#41404d" d="M110.26 21.152v9.628a.094.094 0 0 1-.092.095h-1.551a.097.097 0 0 1-.094-.095v-9.628c0-.05.044-.092.094-.092h1.55c.052 0 .093.041.093.092z"/></g><g><path fill="#41404d" d="M110.26 32.224v9.655a.11.11 0 0 1-.112.109h-1.514a.11.11 0 0 1-.111-.11v-9.654c0-.062.05-.112.11-.112h1.515c.06 0 .112.05.112.112z"/></g><g><path fill="#41404d" d="M7.745 127.21a.898.898 0 0 1-.897-.896v-27.72a.9.9 0 0 1 .897-.898h94.847a.9.9 0 0 1 .898.898v27.72a.898.898 0 0 1-.898.897zm.902-1.797h93.048V99.49H8.647z"/></g><g><path fill="#dadada" d="M37.206 80.289H21.262V64.345h15.944z"/></g><g><path fill="#41404d" d="M21.265 81.186a.9.9 0 0 1-.901-.897V64.347a.9.9 0 0 1 .901-.9h15.944c.495 0 .897.403.897.9V80.29a.898.898 0 0 1-.897.896zm.897-1.798h14.146V65.244H22.162z"/></g><g><path fill="#dadada" d="M62.822 80.289H46.878V64.345h15.944z"/></g><g><path fill="#41404d" d="M46.878 81.186a.9.9 0 0 1-.9-.897V64.347a.9.9 0 0 1 .9-.9h15.944a.9.9 0 0 1 .898.9V80.29a.899.899 0 0 1-.898.896zm.897-1.798h14.146V65.244H47.775z"/></g><g><path fill="#dadada" d="M88.437 80.289H72.492V64.345h15.945z"/></g><g><path fill="#41404d" d="M72.496 81.186a.899.899 0 0 1-.898-.897V64.347a.9.9 0 0 1 .898-.9H88.44a.9.9 0 0 1 .897.9V80.29a.899.899 0 0 1-.897.896zm.897-1.798h14.145V65.244H73.394z"/></g><g><path fill="#41404d" d="M34.586 86.686H23.884a.9.9 0 0 1 0-1.799h10.702a.899.899 0 0 1 0 1.8z"/></g><g><path fill="#41404d" d="M60.2 86.686H49.496a.9.9 0 0 1 0-1.799H60.2a.899.899 0 0 1 0 1.8z"/></g><g><path fill="#41404d" d="M85.815 86.686h-10.7a.9.9 0 0 1 0-1.799h10.7c.495 0 .901.404.901.899a.902.902 0 0 1-.9.9z"/></g><g><path fill="#ffbf5d" d="M102.589 51.787H7.749V15.82h94.84z"/></g><g><path fill="#41404d" d="M7.745 52.685a.899.899 0 0 1-.897-.897V15.82a.9.9 0 0 1 .897-.901h94.847a.9.9 0 0 1 .898.9v35.968a.899.899 0 0 1-.898.897zm.902-1.795h93.048V16.718H8.647z"/></g><g><path fill="#41404d" d="M78.022 31.189H32.32a.9.9 0 0 1 0-1.8h45.703a.899.899 0 0 1 0 1.8z"/></g><g><path fill="#41404d" d="M67.085 38.215H43.249a.9.9 0 0 1 0-1.8h23.836c.494 0 .9.404.9.899a.902.902 0 0 1-.9.9z"/></g><g><path fill="#dadada" d="M7.749 126.313h94.84v-27.72H7.749z"/></g><g><path fill="#41404d" d="M7.745 127.21a.898.898 0 0 1-.897-.896v-27.72a.9.9 0 0 1 .897-.898h94.847a.9.9 0 0 1 .898.898v27.72a.898.898 0 0 1-.898.897zm.902-1.797h93.048V99.49H8.647z"/></g><g><path fill="#41404d" d="M37.208 107.54H21.264a.902.902 0 0 1-.901-.9c0-.496.407-.898.901-.898h15.944a.898.898 0 1 1 0 1.798z"/></g><g><path fill="#41404d" d="M37.208 113.481H21.264a.902.902 0 0 1-.901-.897c0-.498.407-.9.901-.9h15.944a.899.899 0 0 1 0 1.797z"/></g><g><path fill="#41404d" d="M29.234 119.424h-7.973a.899.899 0 0 1 0-1.8h7.973a.9.9 0 0 1 0 1.8z"/></g><g><path fill="#41404d" d="M62.821 107.54H46.877a.9.9 0 0 1 0-1.798h15.944a.898.898 0 1 1 0 1.798z"/></g><g><path fill="#41404d" d="M62.821 113.481H46.877a.9.9 0 1 1 0-1.798h15.944a.899.899 0 0 1 0 1.798z"/></g><g><path fill="#41404d" d="M54.852 119.424h-7.973a.899.899 0 1 1 0-1.8h7.973a.9.9 0 0 1 0 1.8z"/></g><g><path fill="#41404d" d="M88.439 107.54H72.495a.899.899 0 0 1 0-1.798h15.943a.898.898 0 0 1 0 1.798z"/></g><g><path fill="#41404d" d="M88.439 113.481H72.495a.898.898 0 0 1 0-1.798h15.943a.9.9 0 0 1 0 1.798z"/></g><g><path fill="#41404d" d="M80.465 119.424h-7.973a.899.899 0 0 1 0-1.8h7.973a.9.9 0 0 1 0 1.8z"/></g><g><path fill="#ffbf5d" d="M46.878 131.688h49.124v8.965H46.878z"/></g><g><path fill="#41404d" d="M46.878 141.554a.902.902 0 0 1-.9-.9v-8.965a.9.9 0 0 1 .9-.898h49.124a.9.9 0 0 1 .897.898v8.965c0 .494-.403.9-.897.9zm.897-1.798h47.329v-7.166H47.775z"/></g><g><path fill="#ffbf5d" d="M21.262 131.688h15.944v8.965H21.262z"/></g><g><path fill="#41404d" d="M21.265 141.554a.902.902 0 0 1-.901-.9v-8.965a.9.9 0 0 1 .901-.898h15.944c.495 0 .897.404.897.898v8.965a.9.9 0 0 1-.897.9zm.897-1.798h14.146v-7.166H22.162z"/></g></g></svg>