<svg xmlns="http://www.w3.org/2000/svg" width="145" height="113" viewBox="0 0 145 113"><g><g><path fill="#41404d" d="M111.302 112.544H4.588a3.887 3.887 0 0 1-3.881-3.881V4.268A3.885 3.885 0 0 1 4.587.387h20.338a.899.899 0 0 1 0 1.795H4.588a2.085 2.085 0 0 0-2.083 2.086v104.395c0 1.149.93 2.086 2.083 2.086h106.714a.9.9 0 0 1 .9.898.902.902 0 0 1-.9.897z"/></g><g><path fill="#41404d" d="M141.04 112.544h-16.798a.898.898 0 0 1 0-1.795h16.798a2.089 2.089 0 0 0 2.086-2.086V4.268a2.089 2.089 0 0 0-2.086-2.086H84.655a.901.901 0 0 1-.901-.898c0-.495.407-.897.9-.897h56.386c2.14 0 3.88 1.74 3.88 3.88v104.396a3.887 3.887 0 0 1-3.88 3.88z"/></g><g><path fill="#41404d" d="M77.006 2.183H57.492a.896.896 0 1 1 0-1.795h19.514a.898.898 0 0 1 0 1.795z"/></g><g><path fill="#ffbf5d" d="M56.21 32.201c0 11.122-9.015 20.141-20.14 20.141-11.122 0-20.138-9.019-20.138-20.14 0-11.123 9.016-20.142 20.137-20.142 11.126 0 20.141 9.02 20.141 20.141z"/></g><g><path fill="#41404d" d="M36.069 12.961c10.61 0 19.243 8.63 19.243 19.24 0 10.61-8.633 19.242-19.243 19.242s-19.24-8.632-19.24-19.243c0-10.61 8.63-19.239 19.24-19.239zm0 40.277c11.603 0 21.042-9.438 21.042-21.038 0-11.599-9.44-21.037-21.042-21.037-11.6 0-21.035 9.438-21.035 21.037 0 11.6 9.435 21.038 21.035 21.038z"/></g><g><path fill="#fff" d="M56.197 32.225H36.07V12.06c11.105 0 20.127 9.02 20.127 20.164z"/></g><g><path fill="#41404d" d="M36.97 12.982c9.887.457 17.85 8.437 18.307 18.343H36.97zm19.228 20.141a.898.898 0 0 0 .897-.897c0-11.613-9.432-21.062-21.027-21.062a.9.9 0 0 0-.898.901v20.161c0 .495.403.897.898.897z"/></g><g><path fill="#ffbf5d" d="M85.425 76.73a1.347 1.347 0 0 1-1.348-1.347V47.44a1.347 1.347 0 1 1 2.696 0v27.943c0 .745-.603 1.348-1.348 1.348z"/></g><g><path fill="#41404d" d="M85.425 44.294a3.147 3.147 0 0 1 3.143 3.143v27.947a3.148 3.148 0 0 1-3.143 3.143 3.15 3.15 0 0 1-3.146-3.143V47.437a3.15 3.15 0 0 1 3.146-3.143zm0 1.799c-.745 0-1.348.603-1.348 1.344v27.947a1.35 1.35 0 0 0 1.348 1.348 1.35 1.35 0 0 0 1.348-1.348V47.437c0-.741-.603-1.344-1.348-1.344z"/></g><g><path fill="#ffbf5d" d="M98.362 76.73a1.347 1.347 0 0 1-1.348-1.347v-14.77a1.347 1.347 0 1 1 2.696 0v14.77c0 .745-.603 1.348-1.348 1.348z"/></g><g><path fill="#41404d" d="M98.362 57.469a3.148 3.148 0 0 1 3.143 3.147v14.769a3.147 3.147 0 0 1-3.143 3.143 3.15 3.15 0 0 1-3.146-3.143v-14.77a3.15 3.15 0 0 1 3.146-3.146zm0 1.799c-.745 0-1.348.603-1.348 1.348v14.769c0 .74.603 1.344 1.348 1.344.745 0 1.348-.603 1.348-1.344v-14.77c0-.744-.603-1.347-1.348-1.347z"/></g><g><path fill="#ffbf5d" d="M111.302 76.73a1.347 1.347 0 0 1-1.348-1.347V35.102a1.347 1.347 0 1 1 2.696 0v40.28c0 .746-.603 1.349-1.348 1.349z"/></g><g><path fill="#41404d" d="M111.302 31.958a3.147 3.147 0 0 1 3.143 3.143v40.28a3.144 3.144 0 0 1-6.29 0v-40.28a3.15 3.15 0 0 1 3.147-3.143zm0 1.795c-.745 0-1.348.604-1.348 1.348v40.28a1.347 1.347 0 1 0 2.696 0v-40.28c0-.744-.603-1.348-1.348-1.348z"/></g><g><path fill="#ffbf5d" d="M124.238 76.73a1.347 1.347 0 0 1-1.348-1.347V41.446a1.35 1.35 0 0 1 1.348-1.352 1.35 1.35 0 0 1 1.348 1.352v33.937c0 .745-.603 1.348-1.348 1.348z"/></g><g><path fill="#41404d" d="M124.238 38.298a3.15 3.15 0 0 1 3.146 3.143v33.94a3.148 3.148 0 0 1-3.146 3.144 3.148 3.148 0 0 1-3.146-3.143V41.44a3.15 3.15 0 0 1 3.146-3.143zm0 1.795c-.745 0-1.348.603-1.348 1.348v33.94a1.347 1.347 0 1 0 2.696 0v-33.94c0-.745-.603-1.348-1.348-1.348z"/></g><g><path fill="#fff" d="M15.932 61.85H64.6"/></g><g><path fill="#41404d" d="M64.596 62.749H15.93a.899.899 0 0 1 0-1.798h48.667a.899.899 0 0 1 0 1.798z"/></g><g><path fill="#fff" d="M15.932 68.45H64.6"/></g><g><path fill="#41404d" d="M64.596 69.349H15.93a.899.899 0 0 1 0-1.798h48.667a.899.899 0 0 1 0 1.798z"/></g><g><path fill="#fff" d="M15.932 75.049H43.43"/></g><g><path fill="#41404d" d="M43.43 75.948h-27.5a.899.899 0 0 1 0-1.798h27.5a.898.898 0 0 1 0 1.798z"/></g><g><path fill="#fff" d="M81.978 15.146h48.667"/></g><g><path fill="#41404d" d="M130.644 16.043h-48.67a.898.898 0 0 1 0-1.795h48.67a.897.897 0 0 1 0 1.795z"/></g><g><path fill="#fff" d="M81.978 21.745h27.5"/></g><g><path fill="#41404d" d="M109.475 22.645h-27.5a.899.899 0 0 1 0-1.798h27.5a.899.899 0 0 1 0 1.797z"/></g><g><path fill="#ffbf5d" d="M35.17 101.771H15.932v-15.51H35.17z"/><path fill="none" stroke="#41404d" stroke-linecap="round" stroke-linejoin="round" stroke-miterlimit="20" stroke-width="1.69" d="M35.17 101.771v0H15.932v0-15.51 0H35.17v0z"/></g><g><path fill="#ffbf5d" d="M43.429 87.162H66.37"/><path fill="none" stroke="#41404d" stroke-linecap="round" stroke-linejoin="round" stroke-miterlimit="20" stroke-width="1.69" d="M43.429 87.162H66.37"/></g><g><path fill="#ffbf5d" d="M43.429 94.016h11.47"/><path fill="none" stroke="#41404d" stroke-linecap="round" stroke-linejoin="round" stroke-miterlimit="20" stroke-width="1.69" d="M43.429 94.016h11.47"/></g><g><path fill="#ffbf5d" d="M43.429 100.868h17.51"/><path fill="none" stroke="#41404d" stroke-linecap="round" stroke-linejoin="round" stroke-miterlimit="20" stroke-width="1.69" d="M43.429 100.868h17.51"/></g><g><path fill="#ffbf5d" d="M96.184 101.771H76.946v-15.51h19.238z"/><path fill="none" stroke="#41404d" stroke-linecap="round" stroke-linejoin="round" stroke-miterlimit="20" stroke-width="1.69" d="M96.184 101.771v0H76.946v0-15.51 0h19.238v0z"/></g><g><path fill="#ffbf5d" d="M104.442 87.162h9.895"/><path fill="none" stroke="#41404d" stroke-linecap="round" stroke-linejoin="round" stroke-miterlimit="20" stroke-width="1.69" d="M104.442 87.162h9.895"/></g><g><path fill="#ffbf5d" d="M104.442 94.016h20.173"/><path fill="none" stroke="#41404d" stroke-linecap="round" stroke-linejoin="round" stroke-miterlimit="20" stroke-width="1.69" d="M104.442 94.016h20.173"/></g><g><path fill="#ffbf5d" d="M104.442 100.868h17.51"/><path fill="none" stroke="#41404d" stroke-linecap="round" stroke-linejoin="round" stroke-miterlimit="20" stroke-width="1.69" d="M104.442 100.868h17.51"/></g></g></svg>