<svg xmlns="http://www.w3.org/2000/svg" width="181" height="136" viewBox="0 0 181 136"><g><g><path fill="#dadada" d="M179.71 106.21H1.69V3.614A2.709 2.709 0 0 1 4.398.901h172.605a2.711 2.711 0 0 1 2.709 2.713z"/></g><g><path fill="#41404d" d="M179.71 107.11H1.689a.899.899 0 0 1-.898-.898V5.847C.79 2.624 3.696.005 7.266.005h123.46a.897.897 0 0 1 0 1.795H7.267c-2.581 0-4.681 1.816-4.681 4.047v99.463h176.229V93.54a.9.9 0 0 1 .897-.903.9.9 0 0 1 .897.902v12.673a.898.898 0 0 1-.897.897z"/></g><g><path fill="#41404d" d="M179.71 82.766a.899.899 0 0 1-.896-.897V5.848c0-2.231-2.1-4.047-4.677-4.047h-19.582a.898.898 0 0 1 0-1.795h19.582c3.569 0 6.47 2.618 6.47 5.842v76.02a.898.898 0 0 1-.896.898z"/></g><g><path fill="#41404d" d="M113.682 129.749c1.212 0 2.202.989 2.202 2.205 0 1.212-.99 2.204-2.202 2.204h-45.96a2.21 2.21 0 0 1-2.205-2.204 2.21 2.21 0 0 1 2.205-2.205zm0 6.208c2.205 0 4-1.795 4-4.003s-1.795-4-4-4h-45.96a4.001 4.001 0 0 0 0 8.003z"/></g><g><path fill="#fff" d="M172.607 100.58H8.79a.885.885 0 0 1-.884-.887V8.07c0-.49.396-.887.884-.887h163.816c.49 0 .887.396.887.887v91.623a.886.886 0 0 1-.887.887z"/></g><g><path fill="#ffbf5d" d="M87.251 74.718H16.685V26.423h70.566z"/></g><g><path fill="#ffbf5d" d="M165.749 49.961h-73.03V26.104h73.03z"/></g><g><path fill="#41404d" d="M173.495 15.917H7.907a.899.899 0 0 1-.9-.897.9.9 0 0 1 .9-.898h165.588a.898.898 0 0 1 0 1.795z"/></g><g><path fill="#41404d" d="M15.838 75.618a.901.901 0 0 1-.897-.9v-48.29a.9.9 0 0 1 .897-.902h71.574a.9.9 0 0 1 .897.901v48.291a.9.9 0 0 1-.897.9zm.898-1.798H86.51V27.324H16.736z"/></g><g><path fill="#41404d" d="M140.606 27.324h-46.53a.899.899 0 0 1 0-1.799h46.53c.494 0 .9.403.9.902a.901.901 0 0 1-.9.897z"/></g><g><path fill="#41404d" d="M165.749 49.96H94.074a.899.899 0 0 1 0-1.795h71.675a.898.898 0 0 1 0 1.796z"/></g><g><path fill="#41404d" d="M165.749 58.51H94.074a.898.898 0 0 1 0-1.795h71.675a.898.898 0 0 1 0 1.795z"/></g><g><path fill="#41404d" d="M165.749 67.064H94.074a.9.9 0 0 1 0-1.798h71.675a.898.898 0 0 1 0 1.798z"/></g><g><path fill="#41404d" d="M140.606 75.617h-46.53a.9.9 0 0 1 0-1.799h46.53c.494 0 .9.403.9.898a.902.902 0 0 1-.9.901z"/></g><g><path fill="#41404d" d="M15.838 75.617a.899.899 0 0 1-.501-1.643l71.57-48.294a.897.897 0 0 1 1.25.245.903.903 0 0 1-.244 1.246L16.34 75.461a.884.884 0 0 1-.5.156z"/></g><g><path fill="#41404d" d="M87.411 75.617a.882.882 0 0 1-.5-.156l-71.575-48.29a.902.902 0 0 1-.244-1.246.897.897 0 0 1 1.25-.245l71.57 48.294c.41.278.52.837.244 1.247a.907.907 0 0 1-.745.396z"/></g><g><path fill="#41404d" d="M15.784 101.48a.899.899 0 0 1-.898-.898V87.855c0-.495.404-.898.898-.898h149.965c.495 0 .897.404.897.898v12.727a.898.898 0 0 1-.897.898zm.9-1.796h148.167v-10.93H16.684z"/></g><g><path fill="#dadada" d="M179.721 106.21v9.459c0 2.177-2.517 3.921-5.608 3.921H7.251c-3.058 0-5.57-1.744-5.57-3.921v-9.459z"/></g><g><path fill="#41404d" d="M178.824 107.11v8.561c0 1.642-2.16 3.024-4.71 3.024H7.25c-2.53 0-4.67-1.382-4.67-3.024v-8.562zm-4.71 13.38c3.651 0 6.505-2.113 6.505-4.819v-9.459a.9.9 0 0 0-.897-.902H1.682a.901.901 0 0 0-.9.902v9.46c0 2.657 2.901 4.818 6.467 4.818z"/></g><g><path fill="#dadada" d="M110.809 128.852l-7.941-9.266H79.496l-7.942 9.266z"/></g><g><path fill="#41404d" d="M79.91 120.485h22.542l6.404 7.468H73.51zm30.9 9.263a.894.894 0 0 0 .816-.521.906.906 0 0 0-.135-.962l-7.942-9.263a.898.898 0 0 0-.68-.312H79.497a.901.901 0 0 0-.681.312l-7.942 9.263a.909.909 0 0 0-.138.962.904.904 0 0 0 .82.521z"/></g><g><path fill="#41404d" d="M171.668 8.08c.515 0 .928.417.928.924v89.75a.925.925 0 0 1-.928.928H9.731a.924.924 0 0 1-.924-.928V9.004c0-.507.413-.924.924-.924zm0 93.401a2.73 2.73 0 0 0 2.727-2.727V9.004c0-1.5-1.223-2.722-2.727-2.722H9.731a2.727 2.727 0 0 0-2.723 2.722v89.75a2.729 2.729 0 0 0 2.723 2.727z"/></g><g><path fill="#fff" d="M94.59 112.903a3.41 3.41 0 0 1-3.407 3.411 3.411 3.411 0 0 1-3.41-3.41 3.407 3.407 0 0 1 3.41-3.407 3.406 3.406 0 0 1 3.407 3.406z"/></g><g><path fill="#41404d" d="M91.18 110.394a2.516 2.516 0 0 1 2.513 2.509 2.515 2.515 0 0 1-2.513 2.509 2.514 2.514 0 0 1-2.51-2.51 2.515 2.515 0 0 1 2.51-2.508zm0 6.817a4.31 4.31 0 0 0 4.308-4.308 4.306 4.306 0 1 0-4.308 4.308z"/></g></g></svg>