<svg xmlns="http://www.w3.org/2000/svg" width="171" height="137" viewBox="0 0 171 137"><g><g><path fill="#dadada" d="M164.184 46.726l6 43.548v27.015l-49.882 14.583v-27.014L114.3 61.31z"/></g><g><path fill="none" stroke="#41404d" stroke-linecap="round" stroke-linejoin="round" stroke-miterlimit="20" stroke-width="1.86" d="M164.184 46.726v0l6 43.548v27.015l-49.882 14.583v0-27.014 0L114.3 61.31v0l49.883-14.584v0z"/></g><g><path fill="#ffbf5d" d="M137.047 61.003l25.12-7.344 4.009 30.422-41.865 12.24-4.01-30.422 5.619-1.643"/><path fill="none" stroke="#41404d" stroke-linecap="round" stroke-linejoin="round" stroke-miterlimit="20" stroke-width="1.86" d="M137.047 61.003v0l25.12-7.344v0l4.009 30.422v0L124.31 96.32v0l-4.01-30.422v0l5.619-1.643v0"/></g><g><path fill="#ffbf5d" d="M58.523 60.433l.121 5.112.871 19.86 23.065 6.692V67.412z"/></g><g><path fill="#ffbf5d" d="M26.032 51.006L1.105 43.774v24.684l23.491 6.816z"/></g><g><path fill="#dadada" d="M95.69 13.068l41.85 12.141-54.458 15.894-81.977-23.78L55.562 1.426 79.596 8.4"/><path fill="none" stroke="#41404d" stroke-linecap="round" stroke-linejoin="round" stroke-miterlimit="20" stroke-width="1.86" d="M95.69 13.068v0l41.85 12.141v0L83.081 41.103v0L1.105 17.323v0L55.562 1.426v0L79.596 8.4v0"/></g><g><path fill="none" stroke="#41404d" stroke-linecap="round" stroke-linejoin="round" stroke-miterlimit="20" stroke-width="1.86" d="M87.656 118.517l-4.574 1.335"/></g><g><path fill="none" stroke="#41404d" stroke-linecap="round" stroke-linejoin="round" stroke-miterlimit="20" stroke-width="1.86" d="M120.302 131.943v0l-32.646-9.456v0V53.66v0l26.645 7.65v0"/></g><g><path fill="none" stroke="#41404d" stroke-linecap="round" stroke-linejoin="round" stroke-miterlimit="20" stroke-width="1.86" d="M87.656 53.66v0l49.883-14.585v0l26.644 7.65v0L114.301 61.31v0l-26.645-7.65v0z"/></g><g><path fill="#ffbf5d" d="M91.678 61.003l19.602 5.629 3.6 28.08-23.202-6.662z"/></g><g><path fill="none" stroke="#41404d" stroke-linecap="round" stroke-linejoin="round" stroke-miterlimit="20" stroke-width="1.86" d="M91.678 61.003v0l19.602 5.629v0l3.6 28.08v0L91.679 88.05v0-27.047 0z"/></g><g><path fill="none" stroke="#41404d" stroke-linecap="round" stroke-linejoin="round" stroke-miterlimit="20" stroke-width="1.86" d="M137.54 25.209v13.866"/></g><g><path fill="#ffbf5d" d="M126.997 113.874v10.418l39.18-11.454V102.42z"/></g><g><path fill="none" stroke="#41404d" stroke-linecap="round" stroke-linejoin="round" stroke-miterlimit="20" stroke-width="1.86" d="M126.997 113.874v10.418l39.18-11.454v0-10.418 0l-39.18 11.454v0z"/></g><g><path fill="none" stroke="#41404d" stroke-linecap="round" stroke-linejoin="round" stroke-miterlimit="20" stroke-width="1.86" d="M17.536 110.008s9.71-.185 12.287-5.206"/></g><g><path fill="none" stroke="#41404d" stroke-linecap="round" stroke-linejoin="round" stroke-miterlimit="20" stroke-width="1.86" d="M103.56 135.852c7.668-.377 12.787-5.055 12.787-5.055"/></g><g><path fill="#ffbf5d" d="M31.62 82.022l-3.75-1.118c-1.046-.312-1.929-1.44-2.063-2.631l-.134-1.2 5.946 1.774z"/></g><g><path fill="none" stroke="#41404d" stroke-linecap="round" stroke-linejoin="round" stroke-miterlimit="20" stroke-width="1.86" d="M31.62 82.022v0l-3.75-1.118c-1.046-.312-1.929-1.44-2.063-2.631l-.134-1.2v0l5.946 1.774v3.175z"/></g><g><path fill="none" stroke="#41404d" stroke-linecap="round" stroke-linejoin="round" stroke-miterlimit="20" stroke-width="1.86" d="M31.62 70.397V57.693"/></g><g><path fill="none" stroke="#41404d" stroke-linecap="round" stroke-linejoin="round" stroke-miterlimit="20" stroke-width="1.86" d="M58.645 66.964v0l-.214-4.222c-.171-3.393-2.194-6.867-5.072-8.71l-6.104-3.907v0l-.184-2.182v0l-4.977-1.485v0l-4.978-1.485v0l-.184 2.072v0l-6.103.266c-2.878.125-4.902 2.39-5.074 5.682l-1.168 22.429c-.037.71.48 1.47 1.128 1.664l5.904 1.76v0-5.258 0"/></g><g><path fill="none" stroke="#41404d" stroke-linecap="round" stroke-linejoin="round" stroke-miterlimit="20" stroke-width="1.86" d="M52.568 63.943v21.153l5.903 1.762c.65.193 1.165-.259 1.128-.99l-.642-12.728v0"/></g><g><path fill="none" stroke="#41404d" stroke-linecap="round" stroke-linejoin="round" stroke-miterlimit="20" stroke-width="1.86" d="M31.62 78.847v4.417c0 1.068.778 2.167 1.74 2.453l8.734 2.607v0l8.733 2.605c.962.287 1.741-.347 1.741-1.415v-4.417 0"/></g><g><path fill="#ffbf5d" d="M48.22 46.234c0-1.134-.826-2.299-1.845-2.603l-4.281-1.277-4.281-1.277c-1.02-.304-1.846.368-1.846 1.501s.826 2.298 1.846 2.602l8.562 2.554c1.019.305 1.845-.367 1.845-1.5z"/></g><g><path fill="none" stroke="#41404d" stroke-linecap="round" stroke-linejoin="round" stroke-miterlimit="20" stroke-width="1.86" d="M48.22 46.234v0c0-1.134-.826-2.299-1.845-2.603l-4.281-1.277v0l-4.281-1.277c-1.02-.304-1.846.368-1.846 1.501s.826 2.298 1.846 2.602l8.562 2.554c1.019.305 1.845-.367 1.845-1.5z"/></g><g><path fill="#ffbf5d" d="M52.568 88.272l3.75 1.12c1.045.311 1.928-.289 2.062-1.402l.134-1.118-5.946-1.776z"/></g><g><path fill="none" stroke="#41404d" stroke-linecap="round" stroke-linejoin="round" stroke-miterlimit="20" stroke-width="1.86" d="M52.568 88.272v0l3.75 1.12c1.045.311 1.928-.289 2.062-1.402l.134-1.118v0l-5.946-1.776v3.176z"/></g><g><path fill="#ffbf5d" d="M31.62 58.91c1.495.445 1.495 2.228 2.99 2.675 1.494.446 1.494-1.338 2.988-.893 1.496.446 1.496 2.231 2.992 2.677 1.495.446 1.495-1.338 2.991-.892 1.496.447 1.496 2.231 2.992 2.677 1.5.447 1.5-1.337 2.997-.89 1.5.448 1.5 2.232 2.998 2.678v6.77c-1.499-.449-1.499-2.233-2.998-2.679-1.498-.447-1.498 1.336-2.997.89-1.496-.448-1.496-2.23-2.992-2.677-1.496-.446-1.496 1.337-2.99.891-1.497-.447-1.497-2.23-2.993-2.676-1.494-.447-1.494 1.338-2.988.892-1.495-.446-1.495-2.23-2.99-2.676z"/></g><g><path fill="none" stroke="#41404d" stroke-linecap="round" stroke-linejoin="round" stroke-miterlimit="20" stroke-width="1.86" d="M31.62 58.91c1.495.445 1.495 2.228 2.99 2.675 1.494.446 1.494-1.338 2.988-.893 1.496.446 1.496 2.231 2.992 2.677 1.495.446 1.495-1.338 2.991-.892 1.496.447 1.496 2.231 2.992 2.677 1.5.447 1.5-1.337 2.997-.89 1.5.448 1.5 2.232 2.998 2.678v6.77c-1.499-.449-1.499-2.233-2.998-2.679-1.498-.447-1.498 1.336-2.997.89-1.496-.448-1.496-2.23-2.992-2.677-1.496-.446-1.496 1.337-2.99.891-1.497-.447-1.497-2.23-2.993-2.676-1.494-.447-1.494 1.338-2.988.892-1.495-.446-1.495-2.23-2.99-2.676V58.91v0z"/></g><g><path fill="#41404d" d="M32.516 82.58l-.896-.269a.399.399 0 0 1-.26-.366c0-.16.116-.255.26-.212l.896.268c.145.043.26.207.26.366 0 .16-.115.255-.26.212z"/></g><g><path fill="#41404d" d="M32.395 82.986l-.899-.268a.819.819 0 0 1-.559-.774c0-.215.092-.404.251-.523a.669.669 0 0 1 .552-.092l.897.264c.32.1.562.43.562.775a.647.647 0 0 1-.252.525.59.59 0 0 1-.36.119.792.792 0 0 1-.192-.026zm-.886-.84c-.003-.004-.007-.004-.01-.004z"/></g><g><path fill="#41404d" d="M48.189 87.255a.398.398 0 0 1-.259-.366c0-.16.116-.254.259-.21l1.742.518a.398.398 0 0 1 .259.366c0 .16-.116.254-.259.211zm-3.483-1.039a.398.398 0 0 1-.26-.367c0-.16.116-.253.26-.21l1.741.52c.145.041.261.205.261.365s-.116.254-.261.211zm-3.482-1.039c-.145-.043-.26-.207-.26-.367s.115-.254.26-.212l1.741.52a.4.4 0 0 1 .26.367c0 .16-.117.254-.26.211zm-3.484-1.039a.401.401 0 0 1-.26-.367c0-.16.117-.255.26-.212l1.741.52c.145.043.26.207.26.367s-.115.254-.26.211zm-3.482-1.04c-.145-.042-.26-.207-.26-.366 0-.16.115-.255.26-.212l1.741.52c.144.043.26.207.26.367s-.116.254-.26.211z"/></g><g><path fill="#41404d" d="M49.812 88.182h-.003l-1.743-.52a.817.817 0 0 1-.56-.774.64.64 0 0 1 .255-.525.604.604 0 0 1 .549-.093l1.743.519c.32.096.562.43.562.774a.647.647 0 0 1-.251.526.61.61 0 0 1-.364.119.76.76 0 0 1-.188-.026zm-3.487-1.04l-1.742-.52a.83.83 0 0 1-.56-.772.62.62 0 0 1 .803-.618l1.745.518c.32.1.562.43.562.775a.64.64 0 0 1-.255.525.593.593 0 0 1-.364.119.795.795 0 0 1-.19-.026zm-3.482-1.037l-1.743-.52a.831.831 0 0 1-.56-.773c0-.216.094-.407.252-.527a.667.667 0 0 1 .553-.092l1.743.519c.324.1.559.423.559.774a.642.642 0 0 1-.255.526.593.593 0 0 1-.361.119.767.767 0 0 1-.188-.026zm-3.482-1.042l-1.744-.52a.814.814 0 0 1-.558-.77.65.65 0 0 1 .25-.526.653.653 0 0 1 .554-.092l1.743.518c.324.1.558.424.558.775a.64.64 0 0 1-.251.522.599.599 0 0 1-.361.119.804.804 0 0 1-.191-.026zm-3.483-1.04l-1.743-.518a.817.817 0 0 1-.562-.774c0-.211.092-.404.25-.523a.678.678 0 0 1 .557-.092l1.743.519c.324.1.559.424.559.77a.65.65 0 0 1-.252.527.6.6 0 0 1-.36.119.794.794 0 0 1-.192-.027z"/></g><g><path fill="#41404d" d="M52.567 88.561l-.896-.268a.399.399 0 0 1-.26-.366c0-.16.116-.255.26-.212l.896.268c.145.043.26.207.26.366 0 .16-.115.255-.26.212z"/></g><g><path fill="#41404d" d="M52.447 88.97h-.003l-.896-.27a.817.817 0 0 1-.56-.773.62.62 0 0 1 .804-.619l.897.268c.32.096.562.43.562.774a.651.651 0 0 1-.251.526.61.61 0 0 1-.364.12.82.82 0 0 1-.19-.027zm.229-.819c.003.003.007.003.01.003z"/></g><g><path fill="none" stroke="#41404d" stroke-linecap="round" stroke-linejoin="round" stroke-miterlimit="20" stroke-width="1.86" d="M29.11 59.034l-.209 4.2"/></g><g><path fill="none" stroke="#41404d" stroke-linecap="round" stroke-linejoin="round" stroke-miterlimit="20" stroke-width="1.86" d="M27.254 67.936l-.065 1.284"/></g><g><path fill="none" stroke="#41404d" stroke-linecap="round" stroke-linejoin="round" stroke-miterlimit="20" stroke-width="1.86" d="M55.307 65.545l.47 8.449"/></g><g><path fill="none" stroke="#41404d" stroke-linecap="round" stroke-linejoin="round" stroke-miterlimit="20" stroke-width="1.86" d="M54.621 79.16v3.436"/></g><g><path fill="none" stroke="#41404d" stroke-linecap="round" stroke-linejoin="round" stroke-miterlimit="20" stroke-width="1.86" d="M1.105 73.994v0-56.672 0l81.978 23.781v78.748L1.106 96.07v0-10.024 0"/></g><g><path fill="#dadada" d="M111.384 121.57c.492 7.727-3.011 14.121-7.824 14.282-4.815.161-9.116-5.97-9.61-13.699-.492-7.728 3.01-14.122 7.825-14.283 4.814-.16 9.116 5.971 9.609 13.7z"/></g><g><path fill="none" stroke="#41404d" stroke-linecap="round" stroke-linejoin="round" stroke-miterlimit="20" stroke-width="1.86" d="M111.384 121.57c.492 7.727-3.011 14.121-7.824 14.282-4.815.161-9.116-5.97-9.61-13.699-.492-7.728 3.01-14.122 7.825-14.283 4.814-.16 9.116 5.971 9.609 13.7z"/></g><g><path fill="#dadada" d="M25.36 95.725c.493 7.727-3.01 14.122-7.824 14.283-4.814.16-9.115-5.972-9.609-13.7-.493-7.727 3.01-14.121 7.825-14.283 4.813-.161 9.116 5.972 9.608 13.7z"/></g><g><path fill="none" stroke="#41404d" stroke-linecap="round" stroke-linejoin="round" stroke-miterlimit="20" stroke-width="1.86" d="M25.36 95.725c.493 7.727-3.01 14.122-7.824 14.283-4.814.16-9.115-5.972-9.609-13.7-.493-7.727 3.01-14.121 7.825-14.283 4.813-.161 9.116 5.972 9.608 13.7z"/></g><g><path fill="#fff" d="M135.935 121.679V111.26l22.67-6.628v10.418z"/></g><g><path fill="none" stroke="#41404d" stroke-linecap="round" stroke-linejoin="round" stroke-miterlimit="20" stroke-width="1.86" d="M135.935 121.679v0-10.418 0l22.67-6.628v10.418l-22.67 6.628v0z"/></g><g><path fill="#fff" d="M148.516 58.683l4.209 28.338 4.202-1.22-4.073-28.418z"/></g></g></svg>