<svg xmlns="http://www.w3.org/2000/svg" width="179" height="161" viewBox="0 0 179 161"><g><g><path fill="#fff" d="M55.932 672.049H83.43"/></g><g><path fill="#dadada" d="M64.524 140.366H54.01v-20.138h123.946v20.138h-10.514"/><path fill="none" stroke="#41404d" stroke-linecap="round" stroke-linejoin="round" stroke-miterlimit="20" stroke-width="1.86" d="M64.524 140.366v0H54.01v0-20.138 0h123.946v20.138h-10.514v0"/></g><g><path fill="#fff" d="M89.189 146.24c0 7.197-5.835 13.032-13.033 13.032-7.198 0-13.033-5.835-13.033-13.033 0-7.197 5.835-13.032 13.033-13.032 7.198 0 13.033 5.835 13.033 13.032z"/></g><g><path fill="none" stroke="#41404d" stroke-linecap="round" stroke-linejoin="round" stroke-miterlimit="20" stroke-width="1.86" d="M89.189 146.24c0 7.197-5.835 13.032-13.033 13.032-7.198 0-13.033-5.835-13.033-13.033 0-7.197 5.835-13.032 13.033-13.032 7.198 0 13.033 5.835 13.033 13.032z"/></g><g><path fill="#fff" d="M168.844 146.24c0 7.197-5.835 13.032-13.033 13.032-7.197 0-13.033-5.835-13.033-13.033 0-7.197 5.836-13.032 13.033-13.032 7.198 0 13.033 5.835 13.033 13.032z"/></g><g><path fill="none" stroke="#41404d" stroke-linecap="round" stroke-linejoin="round" stroke-miterlimit="20" stroke-width="1.86" d="M168.844 146.24c0 7.197-5.835 13.032-13.033 13.032-7.197 0-13.033-5.835-13.033-13.033 0-7.197 5.836-13.032 13.033-13.032 7.198 0 13.033 5.835 13.033 13.032z"/></g><g><path fill="none" stroke="#41404d" stroke-linecap="round" stroke-linejoin="round" stroke-miterlimit="20" stroke-width="1.86" d="M98.019 140.366h-10.23"/></g><g><path fill="none" stroke="#41404d" stroke-linecap="round" stroke-linejoin="round" stroke-miterlimit="20" stroke-width="1.86" d="M144.18 140.366h-36.985"/></g><g><path fill="none" stroke="#41404d" stroke-linecap="round" stroke-linejoin="round" stroke-miterlimit="20" stroke-width="1.86" d="M72.908 138.552a8.344 8.344 0 1 1-5.096 7.687"/></g><g><path fill="none" stroke="#41404d" stroke-linecap="round" stroke-linejoin="round" stroke-miterlimit="20" stroke-width="1.86" d="M159.923 153.502a8.314 8.314 0 0 1-4.112 1.082"/></g><g><path fill="none" stroke="#41404d" stroke-linecap="round" stroke-linejoin="round" stroke-miterlimit="20" stroke-width="1.86" d="M150.493 152.67a8.343 8.343 0 1 1 13.662-6.431 8.316 8.316 0 0 1-2.083 5.517"/></g><g><path fill="#ffbf5d" d="M171.78 72.12V55.618H76.155v64.61h95.625V86.105"/><path fill="none" stroke="#41404d" stroke-linecap="round" stroke-linejoin="round" stroke-miterlimit="20" stroke-width="1.86" d="M171.78 72.12v0-16.502 0H76.155v64.61h95.625v0-34.123 0"/></g><g><path fill="#fff" d="M138.232 66.526h-28.529V55.618h28.529z"/><path fill="none" stroke="#41404d" stroke-linecap="round" stroke-linejoin="round" stroke-miterlimit="20" stroke-width="1.86" d="M138.232 66.526v0h-28.529v0-10.908 0h28.529v0z"/></g><g><path fill="#fff" d="M138.232 120.229h-28.529v-10.908h28.529z"/><path fill="none" stroke="#41404d" stroke-linecap="round" stroke-linejoin="round" stroke-miterlimit="20" stroke-width="1.86" d="M138.232 120.229v0h-28.529v0-10.908 0h28.529v0z"/></g><g><path fill="none" stroke="#41404d" stroke-linecap="round" stroke-linejoin="round" stroke-miterlimit="20" stroke-width="1.86" d="M139.211 86.106v0h-30.487a6.993 6.993 0 0 1 0-13.985h30.487a6.993 6.993 0 0 1 0 13.985z"/></g><g><path fill="#dadada" d="M71.424 1.192h-7.49v54.426h80.553V1.192H86.22"/><path fill="none" stroke="#41404d" stroke-linecap="round" stroke-linejoin="round" stroke-miterlimit="20" stroke-width="1.86" d="M71.424 1.192v0h-7.49v54.426h80.553v0V1.192v0H86.22v0"/></g><g><path fill="#ffbf5d" d="M116.227 10.382H92.195V1.193h24.032z"/><path fill="none" stroke="#41404d" stroke-linecap="round" stroke-linejoin="round" stroke-miterlimit="20" stroke-width="1.86" d="M116.227 10.382v0H92.195v0-9.189 0h24.032v0z"/></g><g><path fill="#ffbf5d" d="M116.227 55.618H92.195V46.43h24.032z"/><path fill="none" stroke="#41404d" stroke-linecap="round" stroke-linejoin="round" stroke-miterlimit="20" stroke-width="1.86" d="M116.227 55.618v0H92.195v0-9.188 0h24.032v0z"/></g><g><path fill="#fff" d="M117.052 26.874H91.37a5.89 5.89 0 1 1 0-11.78h25.682a5.89 5.89 0 1 1 0 11.78z"/></g><g><path fill="none" stroke="#41404d" stroke-linecap="round" stroke-linejoin="round" stroke-miterlimit="20" stroke-width="1.86" d="M117.052 26.874v0H91.37a5.89 5.89 0 1 1 0-11.78h25.682a5.89 5.89 0 1 1 0 11.78z"/></g><g><path fill="none" stroke="#41404d" stroke-linecap="round" stroke-linejoin="round" stroke-miterlimit="20" stroke-width="1.86" d="M54.01 120.228v0l-14.944-9.491v0L30.89 72.12v0L22.843 34.1v0H17.76v0"/></g><g><path fill="#dadada" d="M.943 29.765h16.816v8.671H.943z"/><path fill="none" stroke="#41404d" stroke-linecap="round" stroke-linejoin="round" stroke-miterlimit="20" stroke-width="1.86" d="M.943 29.765v0h16.816v8.671H.943v0z"/></g><g><path fill="none" stroke="#41404d" stroke-linecap="round" stroke-linejoin="round" stroke-miterlimit="20" stroke-width="1.86" d="M171.78 124.768h-51.476"/></g><g><path fill="none" stroke="#41404d" stroke-linecap="round" stroke-linejoin="round" stroke-miterlimit="20" stroke-width="1.86" d="M112.814 124.768H86.22"/></g><g><path fill="none" stroke="#41404d" stroke-linecap="round" stroke-linejoin="round" stroke-miterlimit="20" stroke-width="1.86" d="M59.064 124.768h6.368"/></g></g></svg>