<svg xmlns="http://www.w3.org/2000/svg" width="186" height="163" viewBox="0 0 186 163"><g><g><path fill="#dadada" d="M75.838 134.358l-3.952-40.677-15.257 6.347-7.027 45.747c-.525 3.424.785 6.79 3.315 9.001l29.17-12.134c-3.465-1.382-5.887-4.562-6.25-8.284z"/></g><g><path fill="#41404d" d="M71.11 94.974l3.833 39.475a10.803 10.803 0 0 0 6.98 9.116l13.707 5.179a.705.705 0 0 1 .023 1.308l-26.335 10.955a4.157 4.157 0 0 1-3.535-.155l-10.536-5.524a9.074 9.074 0 0 1-4.755-9.419l6.949-45.245zm-3.397 68.15c.779 0 1.555-.149 2.293-.457l26.338-10.96a2.481 2.481 0 0 0 1.537-2.347 2.479 2.479 0 0 0-1.618-2.296L82.56 141.89a9.033 9.033 0 0 1-5.828-7.618l-3.95-40.68a.907.907 0 0 0-.433-.684.892.892 0 0 0-.805-.057L56.286 99.2a.894.894 0 0 0-.541.692l-7.028 45.743a10.87 10.87 0 0 0 5.693 11.285l10.539 5.523a5.947 5.947 0 0 0 2.764.681z"/></g><g><path fill="#41404d" d="M10.84 156.43a.856.856 0 0 1-.4-.095l-7.553-3.776c-1.574-.975-2.472-2.584-2.472-4.345v-92.21c0-4.276 2.553-8.096 6.5-9.74l82.332-34.458a.906.906 0 0 1 1.18.48.898.898 0 0 1-.485 1.176L7.605 47.92a8.736 8.736 0 0 0-5.39 8.084v92.209c0 1.138.578 2.174 1.546 2.78l7.478 3.733a.896.896 0 0 1 .403 1.205.893.893 0 0 1-.803.498z"/></g><g><path fill="#41404d" d="M100.947 8.83a.898.898 0 0 1-.338-1.73l13.854-5.582c1.372-.569 4.18-1.303 5.99-.396l7.032 3.187a.893.893 0 0 1 .447 1.185.9.9 0 0 1-1.19.447l-7.06-3.197c-1.006-.498-3.085-.169-4.538.44l-13.862 5.582a.922.922 0 0 1-.335.064z"/></g><g><path fill="#fff" d="M14.066 50.506L123.554 4.955c2.743-1.141 5.763.873 5.763 3.844v91.552a9.645 9.645 0 0 1-5.895 8.889L13.907 155.462c-2.747 1.158-5.784-.857-5.784-3.838V59.416a9.651 9.651 0 0 1 5.943-8.91z"/></g><g><path fill="#dadada" d="M19.614 59.68V48.2l5.388-2.243v11.48z"/></g><g><path fill="#41404d" d="M125.164 5.526c.627 0 1.25.19 1.802.556a3.215 3.215 0 0 1 1.453 2.715v91.55a8.736 8.736 0 0 1-5.35 8.066L13.557 154.63a3.178 3.178 0 0 1-3.072-.284 3.205 3.205 0 0 1-1.463-2.722V59.415a8.749 8.749 0 0 1 5.385-8.084l109.49-45.547c.414-.173.84-.258 1.267-.258zM12.287 156.69c.667 0 1.338-.136 1.97-.399L123.77 110.07a10.524 10.524 0 0 0 6.448-9.723V8.797a5.05 5.05 0 0 0-2.252-4.21 5.057 5.057 0 0 0-4.758-.463L13.72 49.678a10.514 10.514 0 0 0-6.496 9.737v92.21a5.05 5.05 0 0 0 2.269 4.221c.84.56 1.812.844 2.794.844z"/></g><g><path fill="#dadada" d="M64.214 121.665v-9.646l5.388-2.242v9.646z"/></g><g><path fill="#dadada" d="M129.316 94.178L8.126 145.355"/></g><g><path fill="#41404d" d="M8.123 146.255a.901.901 0 0 1-.83-.55.906.906 0 0 1 .477-1.178l121.196-51.178a.895.895 0 0 1 1.178.48.905.905 0 0 1-.477 1.179L8.475 146.184a.9.9 0 0 1-.352.07z"/></g><g><path fill="#dadada" d="M129.316 94.178v6.157a9.65 9.65 0 0 1-5.913 8.89L13.913 155.47c-2.77 1.142-5.788-.856-5.788-3.833v-6.282z"/></g><g><path fill="#41404d" d="M128.416 95.531v4.802a8.734 8.734 0 0 1-5.36 8.064L13.573 154.635c-1.054.434-2.184.322-3.113-.302a3.19 3.19 0 0 1-1.439-2.699v-5.682zM12.287 156.688c.667 0 1.338-.128 1.978-.393l109.487-46.24a10.526 10.526 0 0 0 6.462-9.72v-6.158a.899.899 0 0 0-.403-.744.893.893 0 0 0-.846-.082L7.772 144.53a.902.902 0 0 0-.548.826v6.278a5.048 5.048 0 0 0 5.063 5.053z"/></g><g><path fill="#ffbf5d" d="M16.973 60.778l104.828-43.61v70.713l-104.828 44.24z"/></g><g><path fill="#41404d" d="M120.901 18.512v68.775l-103.029 43.48v-69.39zM16.975 133.02a.882.882 0 0 0 .35-.07L122.15 88.71a.902.902 0 0 0 .55-.83V17.166a.906.906 0 0 0-1.243-.831L16.63 59.95a.893.893 0 0 0-.552.829v71.344c0 .3.148.582.4.745a.862.862 0 0 0 .497.152z"/></g><g><path fill="#fff" d="M8.123 145.353l121.195-51.152"/></g><g><path fill="#41404d" d="M8.123 146.252a.901.901 0 0 1-.83-.549.906.906 0 0 1 .477-1.179l121.2-51.148a.89.89 0 0 1 1.177.478.898.898 0 0 1-.477 1.177L8.475 146.181a.9.9 0 0 1-.352.071z"/></g><g><path fill="#fff" d="M72.496 52.687l97.441-40.538c1.948-.81 4.091.619 4.091 2.729v62.735a5.35 5.35 0 0 1-3.268 4.928l-97.018 40.944c-2.157.91-4.54-.67-4.54-3.011v-62.85a5.35 5.35 0 0 1 3.294-4.937z"/></g><g><path fill="#fff" d="M28.26 21.363l28.457-12.09c2.31-.982 4.874.714 4.874 3.224v61.935a5.355 5.355 0 0 1-3.187 4.894L30.074 91.85c-2.387 1.057-5.073-.694-5.073-3.3V26.286a5.35 5.35 0 0 1 3.258-4.924z"/></g><g><path fill="#41404d" d="M58.097 9.886c.498 0 .99.15 1.426.44a2.561 2.561 0 0 1 1.172 2.17v61.937a4.462 4.462 0 0 1-2.655 4.074L29.71 91.03a2.679 2.679 0 0 1-2.577-.21 2.683 2.683 0 0 1-1.233-2.276V26.288a4.436 4.436 0 0 1 2.713-4.094l28.455-12.095a2.646 2.646 0 0 1 1.03-.213zM28.613 93.059c.616 0 1.24-.125 1.825-.386l28.33-12.527a6.246 6.246 0 0 0 3.721-5.713V12.497c0-1.48-.734-2.851-1.974-3.67a4.383 4.383 0 0 0-4.149-.38l-28.458 12.09a6.24 6.24 0 0 0-3.806 5.75v62.258a4.5 4.5 0 0 0 2.05 3.783 4.486 4.486 0 0 0 2.461.73z"/></g><g><path fill="#fff" d="M55.402 33.969L32.17 43.635v6.329l23.188-9.644z"/></g><g><path fill="#41404d" d="M54.493 35.322l-.03 4.393-21.394 8.9v-4.379zm-22.32 15.542a.87.87 0 0 0 .341-.07l23.188-9.65a.896.896 0 0 0 .556-.819l.04-6.347a.9.9 0 0 0-.396-.756c-.254-.162-.572-.206-.843-.08l-23.233 9.665a.9.9 0 0 0-.555.83v6.326a.91.91 0 0 0 .4.75.934.934 0 0 0 .501.151z"/></g><g><path fill="#fff" d="M55.402 44.98L32.17 54.647v6.33l23.188-9.646z"/></g><g><path fill="#41404d" d="M54.493 46.333l-.03 4.396-21.394 8.9v-4.383zm-22.32 15.545a.87.87 0 0 0 .341-.071l23.188-9.65a.899.899 0 0 0 .556-.82l.04-6.35a.889.889 0 0 0-.396-.751.876.876 0 0 0-.843-.085l-23.233 9.666a.9.9 0 0 0-.555.83v6.33a.906.906 0 0 0 .901.9z"/></g><g><path fill="#41404d" d="M38.889 74.787a.897.897 0 0 1-.345-1.727l9.75-4.053a.89.89 0 0 1 1.175.487.888.888 0 0 1-.488 1.168l-9.746 4.055a.86.86 0 0 1-.346.07z"/></g><g><path fill="#41404d" d="M25.98 30.577a.902.902 0 0 1-.83-.556.895.895 0 0 1 .485-1.172L61.25 14.03c.45-.18.982.03 1.17.485a.892.892 0 0 1-.483 1.174L26.326 30.506a.853.853 0 0 1-.345.071z"/></g><g><path fill="#dadada" d="M174.028 81.157v-36.07l-27.68 11.822a5.354 5.354 0 0 0-3.257 4.924v32.434z"/></g><g><path fill="#41404d" d="M171.08 12.815c.393 0 .786.118 1.135.352.582.386.914 1.009.914 1.71v62.738c0 1.792-1.067 3.4-2.723 4.098l-97.01 40.944a2.3 2.3 0 0 1-2.236-.21 2.328 2.328 0 0 1-1.06-1.973V57.626a4.439 4.439 0 0 1 2.743-4.11l97.438-40.538c.261-.108.528-.163.8-.163zm-98.606 111.83c.545 0 1.097-.107 1.62-.327l97.01-40.949a6.23 6.23 0 0 0 3.824-5.754V14.876a3.845 3.845 0 0 0-1.718-3.207 3.84 3.84 0 0 0-3.62-.352L72.152 51.86a6.22 6.22 0 0 0-3.847 5.767v62.847a4.17 4.17 0 0 0 4.17 4.172z"/></g><g><path fill="#41404d" d="M164.281 31.157c.501 0 .992.148 1.436.44a2.559 2.559 0 0 1 1.164 2.17v49.51l-49.38 20.784V53.89a4.448 4.448 0 0 1 2.712-4.098l43.041-18.423a2.625 2.625 0 0 1 1.027-.213zm-47.678 75.153a.938.938 0 0 0 .347-.067l51.178-21.54a.9.9 0 0 0 .55-.83V33.768a4.387 4.387 0 0 0-1.968-3.668 4.389 4.389 0 0 0-4.16-.383L119.51 48.14a6.233 6.233 0 0 0-3.806 5.75v51.522a.9.9 0 0 0 .399.748.898.898 0 0 0 .5.149z"/></g><g><path fill="#fff" d="M80.905 65.005l24.455-10.391c1.988-.843 4.189.614 4.189 2.77v50.99L78.104 121.65V69.237a4.6 4.6 0 0 1 2.8-4.232z"/></g><g><path fill="#41404d" d="M106.546 55.27a2.1 2.1 0 0 1 1.16.352c.598.4.947 1.043.947 1.764v50.387l-29.65 12.52V69.236c0-1.487.887-2.821 2.255-3.4l24.456-10.394c.27-.115.551-.172.832-.172zm-28.44 67.276a.966.966 0 0 0 .352-.068l31.446-13.28a.894.894 0 0 0 .548-.826V57.386a3.904 3.904 0 0 0-1.754-3.261 3.918 3.918 0 0 0-3.69-.34L80.555 64.178a5.486 5.486 0 0 0-3.347 5.059v52.413c0 .3.148.582.402.748a.865.865 0 0 0 .495.149z"/></g><g><path fill="#41404d" d="M84.78 95.877a.898.898 0 0 1-.345-1.728l19.42-8.077a.897.897 0 1 1 .687 1.657l-19.416 8.077a.853.853 0 0 1-.345.071z"/></g><g><path fill="#ffbf5d" d="M124.94 75.13l28.86-12.006v19.47l-28.86 12.179z"/></g><g><path fill="#41404d" d="M152.905 64.468v17.529L125.838 93.42V75.732zm-27.969 31.204c.122 0 .24-.023.353-.067l28.864-12.182a.907.907 0 0 0 .546-.83V63.12a.89.89 0 0 0-.4-.745.878.878 0 0 0-.84-.082l-28.865 12.01a.894.894 0 0 0-.555.829v19.643c0 .3.152.583.4.749a.897.897 0 0 0 .497.148z"/></g><g><path fill="#41404d" d="M89.178 99.973a.889.889 0 0 1-.826-.556.894.894 0 0 1 .48-1.172l10.628-4.416c.45-.203.979.02 1.172.485a.895.895 0 0 1-.484 1.172l-10.624 4.416a.848.848 0 0 1-.346.07z"/></g><g><path fill="#41404d" d="M125.02 58.974a.894.894 0 0 1-.83-.556.896.896 0 0 1 .483-1.172l34.348-14.288a.89.89 0 0 1 1.173.485.892.892 0 0 1-.485 1.172l-34.345 14.288a.86.86 0 0 1-.345.07z"/></g><g><path fill="#41404d" d="M69.202 61.932a.897.897 0 0 1-.345-1.727l104.03-43.285a.905.905 0 0 1 1.173.485.894.894 0 0 1-.484 1.174L69.548 61.862a.86.86 0 0 1-.346.07z"/></g><g><path fill="#fff" d="M99.86 78.556c-1.582 3.804-5.27 5.883-8.236 4.65-2.964-1.232-4.085-5.317-2.503-9.117 1.582-3.803 5.266-5.886 8.233-4.653 2.967 1.236 4.088 5.317 2.506 9.12z"/></g><g><path fill="#41404d" d="M95.544 69.976c.502 0 .992.094 1.463.288 2.503 1.046 3.407 4.608 2.022 7.951-1.385 3.329-4.545 5.195-7.06 4.166-2.497-1.043-3.408-4.61-2.023-7.948 1.131-2.713 3.434-4.457 5.598-4.457zm-2.14 14.481c2.89 0 5.872-2.154 7.285-5.555 1.771-4.257.426-8.873-2.994-10.295-3.417-1.419-7.637.88-9.405 5.138-1.768 4.25-.43 8.869 2.99 10.292.685.287 1.402.42 2.124.42z"/></g><g><path fill="#ffbf5d" d="M151.335 59.224l29.634-12.592c1.754-.745 3.698.542 3.698 2.446V89.26a5.347 5.347 0 0 1-3.187 4.89l-29.67 13.12c-1.755.776-3.733-.511-3.733-2.432v-40.69a5.35 5.35 0 0 1 3.258-4.924z"/></g><g><path fill="#41404d" d="M182.014 47.315c.34 0 .671.098.966.294.501.331.79.866.79 1.466v40.182c0 1.762-1.04 3.36-2.653 4.072l-29.667 13.12a1.724 1.724 0 0 1-1.673-.14 1.718 1.718 0 0 1-.803-1.472V64.144a4.438 4.438 0 0 1 2.713-4.093l29.633-12.596a1.78 1.78 0 0 1 .694-.142zm-31.275 61.082c.484 0 .976-.103 1.44-.307l29.663-13.118a6.246 6.246 0 0 0 3.725-5.714V49.076a3.559 3.559 0 0 0-1.592-2.967 3.584 3.584 0 0 0-3.356-.308l-29.637 12.595a6.233 6.233 0 0 0-3.803 5.75v40.69c0 1.21.603 2.32 1.616 2.982a3.561 3.561 0 0 0 1.944.578z"/></g><g><path fill="#fff" d="M154.83 66.048l24.454-10.522v10.973L154.83 77.228z"/></g><g><path fill="#41404d" d="M178.386 56.888v9.025l-22.658 9.937v-9.208zm-23.558 21.238a.843.843 0 0 0 .362-.078l24.455-10.729a.887.887 0 0 0 .538-.82V55.523a.907.907 0 0 0-.402-.751.9.9 0 0 0-.85-.072l-24.456 10.526a.893.893 0 0 0-.544.823v11.176a.9.9 0 0 0 .897.901z"/></g><g><path fill="#41404d" d="M158.068 85.935a.887.887 0 0 1-.826-.556.895.895 0 0 1 .481-1.172l19.426-8.08a.887.887 0 0 1 1.168.488.889.889 0 0 1-.48 1.172l-19.423 8.077a.861.861 0 0 1-.346.07z"/></g><g><path fill="#41404d" d="M162.47 90.031a.902.902 0 0 1-.83-.556.895.895 0 0 1 .485-1.172l10.624-4.419a.89.89 0 0 1 1.172.484.89.89 0 0 1-.484 1.172l-10.62 4.42a.861.861 0 0 1-.346.071z"/></g></g></svg>