<svg xmlns="http://www.w3.org/2000/svg" width="180" height="137" viewBox="0 0 180 137"><g><g><path fill="#dadada" d="M178.967 106.993H.946V4.397a2.709 2.709 0 0 1 2.707-2.713h172.604a2.712 2.712 0 0 1 2.71 2.713z"/></g><g><path fill="#41404d" d="M178.967 107.893H.944a.898.898 0 0 1-.898-.897V6.632C.046 3.408 2.95.79 6.52.79h123.46a.896.896 0 1 1 0 1.795H6.522c-2.58 0-4.68 1.815-4.68 4.047v99.463H178.07V94.323c0-.498.402-.901.897-.901a.9.9 0 0 1 .897.9v12.674a.898.898 0 0 1-.897.897z"/></g><g><path fill="#41404d" d="M178.967 83.55a.898.898 0 0 1-.897-.897V6.632c0-2.232-2.1-4.047-4.678-4.047H153.81a.9.9 0 0 1-.902-.897.9.9 0 0 1 .902-.9h19.58c3.57 0 6.473 2.619 6.473 5.844v76.02a.899.899 0 0 1-.897.898z"/></g><g><path fill="#41404d" d="M112.938 130.533c1.211 0 2.2.99 2.2 2.205a2.208 2.208 0 0 1-2.2 2.204H66.975a2.212 2.212 0 0 1-2.204-2.204 2.21 2.21 0 0 1 2.204-2.205zm0 6.208a4.006 4.006 0 0 0 3.998-4.003c0-2.209-1.795-4-3.999-4h-45.96a4 4 0 0 0 0 8.003z"/></g><g><path fill="#fff" d="M171.862 101.364H8.046a.884.884 0 0 1-.884-.887V8.854c0-.49.395-.887.884-.887h163.816c.491 0 .887.396.887.887v91.623a.886.886 0 0 1-.887.887z"/></g><g><path fill="#41404d" d="M172.75 16.701H7.162a.9.9 0 0 1-.9-.897.9.9 0 0 1 .9-.898H172.75a.898.898 0 0 1 0 1.795z"/></g><g><path fill="#41404d" d="M15.039 102.263a.898.898 0 0 1-.897-.897V88.639c0-.495.403-.897.897-.897h149.965c.494 0 .897.402.897.897v12.727a.898.898 0 0 1-.897.897zm.9-1.795h148.168v-10.93H15.94z"/></g><g><path fill="#dadada" d="M178.977 106.993v9.46c0 2.177-2.517 3.921-5.608 3.921H6.507c-3.057 0-5.571-1.744-5.571-3.922v-9.459z"/></g><g><path fill="#41404d" d="M178.08 107.892v8.562c0 1.642-2.16 3.024-4.71 3.024H6.504c-2.53 0-4.67-1.382-4.67-3.024v-8.562zm-4.71 13.381c3.65 0 6.505-2.113 6.505-4.819v-9.459a.9.9 0 0 0-.898-.9H.937a.901.901 0 0 0-.9.9v9.46c0 2.658 2.901 4.818 6.468 4.818z"/></g><g><path fill="#dadada" d="M110.064 129.637l-7.941-9.266H78.75l-7.941 9.266z"/></g><g><path fill="#41404d" d="M79.165 121.27h22.542l6.404 7.467H72.764zm30.9 9.262c.352 0 .67-.203.815-.52a.906.906 0 0 0-.134-.963l-7.943-9.263a.898.898 0 0 0-.68-.312h-23.37a.9.9 0 0 0-.682.312l-7.942 9.263a.909.909 0 0 0-.139.962.905.905 0 0 0 .82.521z"/></g><g><path fill="#41404d" d="M170.924 8.865c.515 0 .928.417.928.924v89.75a.925.925 0 0 1-.928.928H8.987a.925.925 0 0 1-.925-.928V9.789c0-.507.414-.924.925-.924zm0 93.4a2.73 2.73 0 0 0 2.726-2.726V9.789c0-1.5-1.223-2.722-2.726-2.722H8.987a2.727 2.727 0 0 0-2.723 2.722v89.75a2.729 2.729 0 0 0 2.723 2.727z"/></g><g><path fill="#fff" d="M93.845 113.688a3.41 3.41 0 1 1-6.82 0 3.41 3.41 0 0 1 6.82 0z"/></g><g><path fill="#41404d" d="M90.436 111.178a2.515 2.515 0 0 1 2.512 2.508 2.516 2.516 0 0 1-2.512 2.51 2.515 2.515 0 0 1-2.51-2.51 2.514 2.514 0 0 1 2.51-2.508zm0 6.816a4.31 4.31 0 0 0 4.307-4.308 4.309 4.309 0 0 0-4.307-4.303 4.305 4.305 0 0 0 0 8.611z"/></g><g><path fill="#dadada" d="M36.73 75.375h-4.828c-1.347 0-2.484-1-2.656-2.336l-.173-1.343h7.657z"/></g><g><path fill="none" stroke="#41404d" stroke-linecap="round" stroke-linejoin="round" stroke-miterlimit="20" stroke-width="1.86" d="M36.73 75.375v0h-4.828c-1.347 0-2.484-1-2.656-2.336l-.173-1.343v0h7.657v3.679z"/></g><g><path fill="none" stroke="#41404d" stroke-linecap="round" stroke-linejoin="round" stroke-miterlimit="20" stroke-width="1.86" d="M36.73 61.908V47.19"/></g><g><path fill="none" stroke="#41404d" stroke-linecap="round" stroke-linejoin="round" stroke-miterlimit="20" stroke-width="1.86" d="M71.532 48.59v0l-.274-4.817a9.275 9.275 0 0 0-6.534-8.336l-7.859-2.417v0l-.236-2.465v0h-6.41v0h-6.412v0l-.236 2.465v0l-7.859 2.417a9.275 9.275 0 0 0-6.534 8.336l-1.503 26.386a1.454 1.454 0 0 0 1.452 1.537h7.602v0-6.092 0"/></g><g><path fill="none" stroke="#41404d" stroke-linecap="round" stroke-linejoin="round" stroke-miterlimit="20" stroke-width="1.86" d="M63.707 47.19v24.506h7.603c.835 0 1.5-.703 1.452-1.537l-.828-14.522v0"/></g><g><path fill="none" stroke="#41404d" stroke-linecap="round" stroke-linejoin="round" stroke-miterlimit="20" stroke-width="1.86" d="M36.73 71.696v5.116a2.241 2.241 0 0 0 2.24 2.241h11.248v0h11.247a2.241 2.241 0 0 0 2.242-2.24v-5.117 0"/></g><g><path fill="#ffbf5d" d="M58.107 28.179a2.377 2.377 0 0 0-2.376-2.377H44.705a2.377 2.377 0 0 0 0 4.753h11.026a2.376 2.376 0 0 0 2.376-2.376z"/></g><g><path fill="none" stroke="#41404d" stroke-linecap="round" stroke-linejoin="round" stroke-miterlimit="20" stroke-width="1.86" d="M58.107 28.179v0a2.377 2.377 0 0 0-2.376-2.377h-5.514v0h-5.512a2.377 2.377 0 0 0 0 4.753h11.026a2.376 2.376 0 0 0 2.376-2.376z"/></g><g><path fill="#dadada" d="M63.707 75.375h4.828c1.347 0 2.484-1 2.656-2.336l.173-1.343h-7.657z"/></g><g><path fill="none" stroke="#41404d" stroke-linecap="round" stroke-linejoin="round" stroke-miterlimit="20" stroke-width="1.86" d="M63.707 75.375v0h4.828c1.347 0 2.484-1 2.656-2.336l.173-1.343v0h-7.657v3.679z"/></g><g><path fill="#ffbf5d" d="M36.73 48.599c1.926 0 1.926 2.067 3.853 2.067 1.923 0 1.923-2.067 3.847-2.067 1.926 0 1.926 2.067 3.852 2.067 1.927 0 1.927-2.067 3.852-2.067 1.926 0 1.926 2.067 3.853 2.067 1.93 0 1.93-2.067 3.86-2.067s1.93 2.067 3.86 2.067v7.84c-1.93 0-1.93-2.066-3.86-2.066s-1.93 2.066-3.86 2.066c-1.927 0-1.927-2.066-3.854-2.066-1.925 0-1.925 2.066-3.852 2.066-1.925 0-1.925-2.066-3.851-2.066-1.924 0-1.924 2.066-3.847 2.066-1.927 0-1.927-2.066-3.853-2.066z"/></g><g><path fill="none" stroke="#41404d" stroke-linecap="round" stroke-linejoin="round" stroke-miterlimit="20" stroke-width="1.86" d="M36.73 48.599c1.926 0 1.926 2.067 3.853 2.067 1.923 0 1.923-2.067 3.847-2.067 1.926 0 1.926 2.067 3.852 2.067 1.927 0 1.927-2.067 3.852-2.067 1.926 0 1.926 2.067 3.853 2.067 1.93 0 1.93-2.067 3.86-2.067s1.93 2.067 3.86 2.067v7.84c-1.93 0-1.93-2.066-3.86-2.066s-1.93 2.066-3.86 2.066c-1.927 0-1.927-2.066-3.854-2.066-1.925 0-1.925 2.066-3.852 2.066-1.925 0-1.925-2.066-3.851-2.066-1.924 0-1.924 2.066-3.847 2.066-1.927 0-1.927-2.066-3.853-2.066v-7.841 0z"/></g><g><path fill="#41404d" d="M37.885 75.71H36.73a.334.334 0 0 1-.334-.335c0-.186.149-.335.334-.335h1.155c.185 0 .334.149.334.335a.334.334 0 0 1-.334.335z"/></g><g><path fill="#41404d" d="M58.068 75.71a.335.335 0 0 1 0-.67h2.242a.334.334 0 1 1 0 .67zm-4.485 0a.334.334 0 1 1 0-.67h2.242a.334.334 0 1 1 0 .67zm-4.485 0a.334.334 0 1 1 0-.67h2.242a.334.334 0 1 1 0 .67zm-4.486 0a.335.335 0 0 1 0-.67h2.242a.334.334 0 1 1 0 .67zm-4.485 0a.335.335 0 0 1 0-.67h2.242a.334.334 0 1 1 0 .67z"/></g><g><path fill="#41404d" d="M63.706 75.71h-1.154a.334.334 0 0 1-.334-.335c0-.186.15-.335.334-.335h1.154a.334.334 0 1 1 0 .67z"/></g><g><path fill="none" stroke="#41404d" stroke-linecap="round" stroke-linejoin="round" stroke-miterlimit="20" stroke-width="1.86" d="M33.498 49.612l-.27 4.937"/></g><g><path fill="none" stroke="#41404d" stroke-linecap="round" stroke-linejoin="round" stroke-miterlimit="20" stroke-width="1.86" d="M31.108 60.565l-.084 1.512"/></g><g><path fill="none" stroke="#41404d" stroke-linecap="round" stroke-linejoin="round" stroke-miterlimit="20" stroke-width="1.86" d="M68.235 47.831l.604 9.626"/></g><g><path fill="none" stroke="#41404d" stroke-linecap="round" stroke-linejoin="round" stroke-miterlimit="20" stroke-width="1.86" d="M66.35 64.108v3.981"/></g><g><path fill="none" stroke="#41404d" stroke-linecap="round" stroke-linejoin="round" stroke-miterlimit="20" stroke-width="1.86" d="M94.775 27.241v0l2.88-2.879v0l2.88 2.88v0"/></g><g><path fill="none" stroke="#41404d" stroke-linecap="round" stroke-linejoin="round" stroke-miterlimit="20" stroke-width="1.86" d="M153.804 76.174v0l2.88 2.88v0l-2.88 2.879v0"/></g><g><path fill="none" stroke="#f4c151" stroke-linecap="round" stroke-linejoin="round" stroke-miterlimit="20" stroke-width="1.86" d="M97.655 79.054v0l16.668-21.597v0l8.99 4.45v0l21.91-25.61v0"/></g><g><path fill="none" stroke="#41404d" stroke-linecap="round" stroke-linejoin="round" stroke-miterlimit="20" stroke-width="1.86" d="M97.655 25.802v53.252h57.588v0"/></g></g></svg>