<svg xmlns="http://www.w3.org/2000/svg" width="153" height="137" viewBox="0 0 153 137"><g><g><path fill="#41404d" d="M82.09 93.346l33.272 13.838-33.271 13.842-33.267-13.842zm0 29.552a.942.942 0 0 0 .347-.067l35.604-14.817a.898.898 0 1 0 0-1.66L82.437 91.542a.892.892 0 0 0-.688 0l-35.607 14.812a.903.903 0 0 0-.556.83c0 .362.22.692.556.83l35.607 14.817a.921.921 0 0 0 .342.067z"/></g><g><path fill="#dadada" d="M82.092 122l35.604-14.813 28.16 11.713a.43.43 0 0 1 0 .796l-33.423 13.907a3.213 3.213 0 0 1-2.455 0z"/></g><g><path fill="#dadada" d="M82.338 92.452l35.604-14.813 33.86 14.088a.784.784 0 0 1 0 1.45l-33.86 14.088z"/></g><g><path fill="#dadada" d="M12.658 121.259l33.83-14.071L82.092 122l-33.135 13.783a6.433 6.433 0 0 1-4.942 0l-31.357-13.045c-.656-.274-.656-1.206 0-1.48z"/></g><g><path fill="#fff" d="M24.295 83.448l35.604-14.813 22.193 23.737-35.604 14.813z"/></g><g><path fill="#fff" d="M46.487 107.186l35.604-14.813 35.604 14.813L82.091 122z"/></g><g><path fill="#dadada" d="M24.266 83.448l43.938 6.817 8.768-3.596L59.87 68.635z"/></g><g><path fill="#dadada" d="M97.277 98.786l-15.24 6.742a.613.613 0 0 0-.028 1.108l10.956 5.34 11.291-10.403z"/></g><g><path fill="#fff" d="M82.153 92.397l20.91-34.283 35.607 14.813-20.913 34.283z"/></g><g><path fill="#41404d" d="M59.668 69.704L80.55 92.039 46.72 106.117 25.835 83.779zm-13.182 38.378a.871.871 0 0 0 .343-.068l35.607-14.81a.908.908 0 0 0 .535-.643.909.909 0 0 0-.223-.803L60.554 68.02a.91.91 0 0 0-.999-.216L23.952 82.617a.894.894 0 0 0-.535.641.894.894 0 0 0 .223.803l22.19 23.74a.906.906 0 0 0 .656.281z"/></g><g><path fill="#fff" d="M103.061 58.111l-.372-31.144 35.604 14.813.372 31.144z"/></g><g><path fill="#41404d" d="M103.429 59.237l33.928 14.12-19.965 32.728-33.928-14.113zm14.329 48.873c.305 0 .6-.156.769-.43l20.909-34.284a.898.898 0 0 0-.427-1.297l-35.604-14.816a.912.912 0 0 0-1.111.362L81.382 91.928a.903.903 0 0 0 .427 1.301l35.603 14.814a.946.946 0 0 0 .346.067z"/></g><g><path fill="#dadada" d="M102.918 58.116l-.23-31.147 35.604 14.813V72.93z"/></g><g><path fill="#41404d" d="M103.601 28.32l33.798 14.065.353 29.19-33.799-14.065zm35.065 45.503a.896.896 0 0 0 .901-.908l-.376-31.144a.9.9 0 0 0-.555-.819l-35.605-14.817a.89.89 0 0 0-.846.088.89.89 0 0 0-.396.755l.376 31.144c.003.36.22.68.552.82l35.607 14.813a.866.866 0 0 0 .342.068z"/></g><g><path fill="#fff" d="M46.548 107.186l-33.94 5.828L48.21 127.83l33.94-5.83z"/></g><g><path fill="#41404d" d="M46.444 108.115l32.498 13.523-30.629 5.263-32.501-13.523zm1.765 20.61c.051 0 .102-.002.152-.01l33.942-5.827a.903.903 0 0 0 .741-.79.895.895 0 0 0-.549-.928l-35.6-14.816a.918.918 0 0 0-.498-.054l-33.945 5.83a.89.89 0 0 0-.738.787.886.886 0 0 0 .546.928l35.607 14.814a.902.902 0 0 0 .342.067z"/></g><g><path fill="#ffbf5d" d="M5.052 78.787l-3.945-1.64 11.498 35.87 35.607 14.812L36.71 91.96l-23.005-9.572z"/></g><g><path fill="#41404d" d="M48.21 128.727a.942.942 0 0 1-.346-.067l-35.603-14.814a.898.898 0 0 1-.515-.556L.248 77.419a.903.903 0 0 1 1.202-1.104l3.946 1.642c.46.19.677.719.484 1.176a.908.908 0 0 1-1.172.485l-2.15-.895 10.776 33.623 33.427 13.909-10.78-33.626-22.623-9.412a.898.898 0 1 1 .688-1.66l23.012 9.57c.244.103.43.306.511.557l11.495 35.87a.892.892 0 0 1-.248.937.894.894 0 0 1-.606.236z"/></g><g><path fill="#ffbf5d" d="M82.088 122l35.604-14.813 23.284-21.456-35.601 14.814z"/></g><g><path fill="#41404d" d="M136.635 88.51L117.2 106.416l-30.77 12.805 19.432-17.909zM82.089 122.9c.115 0 .23-.025.346-.069l35.603-14.817a.75.75 0 0 0 .26-.166l23.284-21.454a.897.897 0 1 0-.948-1.494l-35.608 14.813a.913.913 0 0 0-.263.17l-23.28 21.457a.892.892 0 0 0-.153 1.146.908.908 0 0 0 .759.413z"/></g><g><path fill="#dadada" d="M24.295 83.448l35.604-14.813.363-33.993-35.605 14.814z"/></g><g><path fill="#41404d" d="M59.348 35.996l-.34 32.039-33.801 14.058.345-32.035zM24.296 84.348a.869.869 0 0 0 .342-.07l35.607-14.814a.896.896 0 0 0 .552-.82l.362-33.991a.878.878 0 0 0-.396-.752.898.898 0 0 0-.846-.088L24.316 48.625a.907.907 0 0 0-.555.824l-.366 33.988a.897.897 0 0 0 .9.91z"/></g><g><path fill="#dadada" d="M52.8 30.564l2.758-1.07 4.704 5.148-35.605 14.813 4.028-8.93 14.183-5.882z"/></g><g><path fill="#41404d" d="M24.66 50.355a.896.896 0 0 1-.645-.273.884.884 0 0 1-.172-.994l4.023-8.93a.885.885 0 0 1 .474-.46l14.183-5.887a.9.9 0 0 1 .688 1.66L29.36 41.218l-2.946 6.536 32.322-13.452-3.427-3.749-2.18.851a.902.902 0 0 1-1.166-.515.892.892 0 0 1 .511-1.158l2.757-1.074a.9.9 0 0 1 .992.23l4.702 5.152c.2.212.28.51.213.798a.89.89 0 0 1-.532.634l-35.6 14.813a.867.867 0 0 1-.346.071z"/></g><g><path fill="#ffbf5d" d="M95.064 65.436l35.605-12.878 2.014 6.487 6.743 21.694 1.551 4.992-35.603 14.814z"/></g><g><path fill="#41404d" d="M130.089 53.722l9.787 31.493-33.924 14.116-9.791-33.339zm-24.716 47.722a.923.923 0 0 0 .342-.068l35.607-14.814a.899.899 0 0 0 .512-1.097l-10.31-33.175a.893.893 0 0 0-.454-.539.9.9 0 0 0-.707-.037L94.759 64.59a.895.895 0 0 0-.559 1.097l10.306 35.11a.907.907 0 0 0 .867.647z"/></g><g><path fill="#dadada" d="M115.871 19.788l-3.966-3.888L76.301 1.087l26.385 25.881 35.608 14.813-15.49-15.192z"/></g><g><path fill="#41404d" d="M138.291 42.68a.95.95 0 0 1-.346-.068l-35.603-14.817a.868.868 0 0 1-.285-.186L75.672 1.728A.898.898 0 0 1 75.553.59a.887.887 0 0 1 1.091-.335l35.607 14.814a.856.856 0 0 1 .284.189l3.959 3.892a.898.898 0 0 1 .018 1.269.901.901 0 0 1-1.271.01l-3.84-3.77L80.254 3.703l22.937 22.5 31.148 12.962-12.165-11.93a.905.905 0 0 1-.014-1.274.899.899 0 0 1 1.271-.01l15.49 15.189a.894.894 0 0 1 .118 1.138.888.888 0 0 1-.748.403z"/></g><g><path fill="#ffbf5d" d="M72.776 3.147l3.53-2.063 35.603 14.814-5.002 2.923a12.823 12.823 0 0 1-11.416.771l-22.227-9.245c-3.072-1.277-3.359-5.517-.488-7.2z"/></g><g><path fill="#41404d" d="M109.898 16.035l-3.444 2.012a11.992 11.992 0 0 1-10.617.718L73.61 9.515a3.067 3.067 0 0 1-1.92-2.678 3.064 3.064 0 0 1 1.541-2.912l3.143-1.836zm-9.486 5.436c2.418 0 4.826-.63 6.95-1.873l5.001-2.926a.888.888 0 0 0 .441-.837.895.895 0 0 0-.549-.768L76.647.257a.89.89 0 0 0-.796.054l-3.528 2.062a4.913 4.913 0 0 0-2.429 4.586 4.903 4.903 0 0 0 3.025 4.22l22.226 9.246c1.684.7 3.475 1.046 5.267 1.046z"/></g></g></svg>