<svg xmlns="http://www.w3.org/2000/svg" width="128" height="151" viewBox="0 0 128 151"><g><g><path fill="#dadada" d="M26.432 139.222H12.974a7.463 7.463 0 0 1-7.403-6.51l-.483-3.743h21.344z"/></g><g><path fill="none" stroke="#41404d" stroke-linecap="round" stroke-linejoin="round" stroke-miterlimit="20" stroke-width="1.86" d="M26.432 139.222v0H12.974a7.463 7.463 0 0 1-7.403-6.51l-.483-3.743v0h21.344v10.253z"/></g><g><path fill="none" stroke="#41404d" stroke-linecap="round" stroke-linejoin="round" stroke-miterlimit="20" stroke-width="1.86" d="M26.432 101.686v-41.02"/></g><g><path fill="none" stroke="#41404d" stroke-linecap="round" stroke-linejoin="round" stroke-miterlimit="20" stroke-width="1.86" d="M123.436 64.564v0l-.766-13.425a25.849 25.849 0 0 0-18.21-23.237l-21.904-6.736v0l-.662-6.87v0H64.027v0H46.161v0l-.66 6.87v0l-21.906 6.736a25.849 25.849 0 0 0-18.21 23.236l-4.193 73.546a4.055 4.055 0 0 0 4.048 4.284h21.191v0-16.981 0"/></g><g><path fill="none" stroke="#41404d" stroke-linecap="round" stroke-linejoin="round" stroke-miterlimit="20" stroke-width="1.86" d="M101.624 60.665v68.304h21.192a4.054 4.054 0 0 0 4.047-4.285l-2.307-40.475v0"/></g><g><path fill="none" stroke="#41404d" stroke-linecap="round" stroke-linejoin="round" stroke-miterlimit="20" stroke-width="1.86" d="M26.432 128.969v14.26a6.247 6.247 0 0 0 6.247 6.247h31.349v0h31.35a6.246 6.246 0 0 0 6.246-6.247v-14.26 0"/></g><g><path fill="#ffbf5d" d="M86.018 7.673a6.624 6.624 0 0 0-6.624-6.624H48.662a6.624 6.624 0 1 0 0 13.248h30.732a6.624 6.624 0 0 0 6.624-6.624z"/></g><g><path fill="none" stroke="#41404d" stroke-linecap="round" stroke-linejoin="round" stroke-miterlimit="20" stroke-width="1.86" d="M86.018 7.673v0a6.624 6.624 0 0 0-6.624-6.624H64.028v0H48.662a6.624 6.624 0 1 0 0 13.248h30.732a6.624 6.624 0 0 0 6.624-6.624z"/></g><g><path fill="#dadada" d="M101.624 139.222h13.459a7.464 7.464 0 0 0 7.403-6.51l.482-3.743h-21.344z"/></g><g><path fill="none" stroke="#41404d" stroke-linecap="round" stroke-linejoin="round" stroke-miterlimit="20" stroke-width="1.86" d="M101.624 139.222v0h13.459a7.464 7.464 0 0 0 7.403-6.51l.482-3.743v0h-21.344v10.253z"/></g><g><path fill="#ffbf5d" d="M26.432 64.59c5.369 0 5.369 5.76 10.737 5.76 5.362 0 5.362-5.76 10.724-5.76 5.369 0 5.369 5.76 10.737 5.76 5.369 0 5.369-5.76 10.738-5.76 5.37 0 5.37 5.76 10.74 5.76 5.38 0 5.38-5.76 10.759-5.76 5.378 0 5.378 5.76 10.757 5.76v21.854c-5.38 0-5.38-5.76-10.757-5.76-5.38 0-5.38 5.76-10.758 5.76-5.371 0-5.371-5.76-10.741-5.76-5.37 0-5.37 5.76-10.738 5.76-5.368 0-5.368-5.76-10.737-5.76-5.362 0-5.362 5.76-10.724 5.76-5.368 0-5.368-5.76-10.737-5.76z"/></g><g><path fill="none" stroke="#41404d" stroke-linecap="round" stroke-linejoin="round" stroke-miterlimit="20" stroke-width="1.86" d="M26.432 64.59c5.369 0 5.369 5.76 10.737 5.76 5.362 0 5.362-5.76 10.724-5.76 5.369 0 5.369 5.76 10.737 5.76 5.369 0 5.369-5.76 10.738-5.76 5.37 0 5.37 5.76 10.74 5.76 5.38 0 5.38-5.76 10.759-5.76 5.378 0 5.378 5.76 10.757 5.76v21.854c-5.38 0-5.38-5.76-10.757-5.76-5.38 0-5.38 5.76-10.758 5.76-5.371 0-5.371-5.76-10.741-5.76-5.37 0-5.37 5.76-10.738 5.76-5.368 0-5.368-5.76-10.737-5.76-5.362 0-5.362 5.76-10.724 5.76-5.368 0-5.368-5.76-10.737-5.76V64.592v0z"/></g><g><path fill="#41404d" d="M29.65 140.155h-3.218a.932.932 0 1 1 0-1.865h3.218a.932.932 0 1 1 0 1.865z"/></g><g><path fill="#41404d" d="M85.907 140.155a.931.931 0 0 1-.932-.933.93.93 0 0 1 .932-.932h6.25a.932.932 0 1 1 0 1.865zm-12.501 0a.932.932 0 1 1 0-1.865h6.25a.931.931 0 1 1 0 1.865zm-12.502 0a.932.932 0 1 1 0-1.865h6.25a.932.932 0 1 1 0 1.865zm-12.502 0a.932.932 0 1 1 0-1.865h6.25a.931.931 0 1 1 0 1.865zm-12.501 0a.932.932 0 1 1 0-1.865h6.25a.932.932 0 1 1 0 1.865z"/></g><g><path fill="#41404d" d="M101.624 140.155h-3.218a.932.932 0 1 1 0-1.865h3.217a.932.932 0 1 1 0 1.865z"/></g><g><path fill="none" stroke="#41404d" stroke-linecap="round" stroke-linejoin="round" stroke-miterlimit="20" stroke-width="1.86" d="M25.57 32.954c-10.582 3.277-13.39 12.548-13.953 17.98"/></g><g><path fill="none" stroke="#41404d" stroke-linecap="round" stroke-linejoin="round" stroke-miterlimit="20" stroke-width="1.86" d="M17.423 67.414l-.749 13.762"/></g><g><path fill="none" stroke="#41404d" stroke-linecap="round" stroke-linejoin="round" stroke-miterlimit="20" stroke-width="1.86" d="M9.183 97.94l-.234 4.214"/></g><g><path fill="none" stroke="#41404d" stroke-linecap="round" stroke-linejoin="round" stroke-miterlimit="20" stroke-width="1.86" d="M116.26 62.451l1.687 26.828"/></g><g><path fill="none" stroke="#41404d" stroke-linecap="round" stroke-linejoin="round" stroke-miterlimit="20" stroke-width="1.86" d="M107.13 107.82v11.096"/></g></g></svg>